<svg width="214" height="151" viewBox="0 0 214 151" fill="none" xmlns="http://www.w3.org/2000/svg">
<path d="M57.8836 22.7041H40.9414C37.6277 22.7041 34.9414 25.3904 34.9414 28.7041V122.313C34.9414 125.627 37.6277 128.313 40.9414 128.313H105.442M100.324 22.7041H117.468C120.782 22.7041 123.468 25.3904 123.468 28.7041V57.0039" stroke="black" stroke-width="4"/>
<path d="M95.1083 34.0356H109.95C113.264 34.0356 115.95 36.7219 115.95 40.0356V56.6961M62.9519 34.0356H48.457C45.1433 34.0356 42.457 36.7219 42.457 40.0356V119.002C42.457 120.106 43.3525 121.002 44.457 121.002H105.133" stroke="black" stroke-width="4"/>
<path d="M63.1562 34.605C63.1562 37.9187 65.8425 40.605 69.1562 40.605H89.2546C92.5683 40.605 95.2546 37.9187 95.2546 34.605V28.1946H63.1562V34.605Z" stroke="black" stroke-width="4"/>
<path d="M100.567 24.1945V22.9839C100.567 20.7747 98.7762 18.9839 96.567 18.9839H86.4336C86.3014 18.9839 86.1943 18.8767 86.1943 18.7445C86.1943 15.9357 83.9173 13.6587 81.1084 13.6587H76.9074C74.0986 13.6587 71.8215 15.9357 71.8215 18.7445C71.8215 18.8767 71.7144 18.9839 71.5822 18.9839H61.8398C59.6307 18.9839 57.8398 20.7747 57.8398 22.9839V24.1945C57.8398 26.4037 59.6307 28.1945 61.8398 28.1945H96.567C98.7761 28.1945 100.567 26.4037 100.567 24.1945Z" stroke="black" stroke-width="4"/>
<path d="M79.3398 51.5952H105.241" stroke="black" stroke-width="4" stroke-linecap="round"/>
<path d="M73.6055 57.8276L105.243 57.8276" stroke="black" stroke-width="4" stroke-linecap="round"/>
<path d="M73.6055 64.0591L105.243 64.0591" stroke="black" stroke-width="4" stroke-linecap="round"/>
<path d="M79.3398 75.2212H105.241" stroke="black" stroke-width="4" stroke-linecap="round"/>
<path d="M73.6055 81.4531L105.243 81.4531" stroke="black" stroke-width="4" stroke-linecap="round"/>
<path d="M73.6055 87.6855L105.243 87.6855" stroke="black" stroke-width="4" stroke-linecap="round"/>
<path d="M79.3398 98.8472H105.241" stroke="black" stroke-width="4" stroke-linecap="round"/>
<path d="M73.6055 105.079L105.243 105.079" stroke="black" stroke-width="4" stroke-linecap="round"/>
<path d="M73.6055 111.312L105.243 111.312" stroke="black" stroke-width="4" stroke-linecap="round"/>
<path d="M131.88 57.1211H110.242C107.481 57.1211 105.242 59.3597 105.242 62.1211V125.921C105.242 128.682 107.481 130.921 110.242 130.921H174.042C176.803 130.921 179.042 128.682 179.042 125.921V62.1211C179.042 59.3597 176.803 57.1211 174.042 57.1211H152.413M131.88 57.1211V77.5193C131.88 78.2711 132.679 78.7541 133.345 78.4049L141.682 74.0334C141.973 73.8809 142.32 73.8809 142.611 74.0334L150.949 78.4049C151.615 78.7541 152.413 78.2711 152.413 77.5193V57.1211M131.88 57.1211H152.413" stroke="black" stroke-width="4"/>
<path d="M160.66 85.5962C161.66 85.5962 162.66 85.9962 163.46 86.7962C165.06 88.3962 165.06 90.8962 163.46 92.4962L140.46 115.496C139.66 116.296 138.66 116.696 137.66 116.696C136.66 116.696 135.66 116.296 134.86 115.496L124.36 104.996C122.76 103.396 122.76 100.896 124.36 99.2962C125.16 98.4962 126.16 98.0962 127.16 98.0962C128.16 98.0962 129.16 98.4962 129.96 99.2962L137.66 106.996L157.86 86.7962C158.66 85.9962 159.66 85.5962 160.66 85.5962ZM160.66 81.5962C158.56 81.5962 156.56 82.3962 154.96 83.8962L137.66 101.196L132.76 96.2962C131.26 94.7962 129.26 93.9962 127.06 93.9962C124.86 93.9962 122.96 94.7962 121.36 96.2962C118.26 99.3962 118.26 104.496 121.36 107.596L131.86 118.096C133.36 119.596 135.36 120.396 137.56 120.396C139.76 120.396 141.66 119.596 143.26 118.096L166.26 95.0962C167.76 93.5962 168.56 91.5962 168.56 89.3962C168.56 87.2962 167.76 85.2962 166.26 83.6962C164.86 82.4962 162.86 81.5962 160.66 81.5962Z" fill="black"/>
<path d="M62.5344 53.9525C62.9183 53.9525 63.3022 54.106 63.6093 54.4131C64.2235 55.0273 64.2235 55.9487 63.6093 56.5629L57.0064 63.1658C56.6993 63.4729 56.3154 63.6264 55.9315 63.6264C55.5476 63.6264 55.1637 63.4729 54.8566 63.1658L51.8622 60.1714C51.248 59.5572 51.248 58.6359 51.8622 58.0217C52.1694 57.7146 52.5533 57.561 52.9372 57.561C53.321 57.561 53.7049 57.7146 54.012 58.0217L55.9315 59.9411L61.3827 54.4899C61.6898 54.106 62.0737 53.9525 62.5344 53.9525ZM62.5344 50.8813C61.3059 50.8813 60.1543 51.342 59.3097 52.2633L56.0083 55.5648C55.1637 54.8738 54.0888 54.4899 53.0139 54.4899C51.7855 54.4899 50.6338 54.9506 49.7893 55.8719C48.0234 57.6378 48.0234 60.5554 49.7893 62.398L52.7836 65.3924C53.6281 66.2369 54.7798 66.7743 56.0083 66.7743C57.2367 66.7743 58.3884 66.3137 59.2329 65.3924L65.8358 58.7895C66.6804 57.9449 67.2178 56.7932 67.2178 55.5648C67.2178 54.3363 66.7572 53.1847 65.8358 52.3401C64.9145 51.342 63.7628 50.8813 62.5344 50.8813Z" fill="black"/>
<path d="M62.5344 76.721C62.9183 76.721 63.3022 76.8746 63.6093 77.1817C64.2235 77.7959 64.2235 78.7172 63.6093 79.3315L57.0064 85.9344C56.6993 86.2415 56.3154 86.395 55.9315 86.395C55.5476 86.395 55.1637 86.2415 54.8566 85.9344L51.8622 82.94C51.248 82.3258 51.248 81.4045 51.8622 80.7902C52.1694 80.4831 52.5533 80.3296 52.9372 80.3296C53.321 80.3296 53.7049 80.4831 54.012 80.7902L55.9315 82.7097L61.3827 77.2584C61.6898 76.8746 62.0737 76.721 62.5344 76.721ZM62.5344 73.6499C61.3059 73.6499 60.1543 74.1106 59.3097 75.0319L56.0083 78.3333C55.1637 77.6423 54.0888 77.2584 53.0139 77.2584C51.7855 77.2584 50.6338 77.7191 49.7893 78.6405C48.0234 80.4064 48.0234 83.3239 49.7893 85.1666L52.7836 88.1609C53.6281 89.0055 54.7798 89.5429 56.0083 89.5429C57.2367 89.5429 58.3884 89.0822 59.2329 88.1609L65.8358 81.558C66.6804 80.7135 67.2178 79.5618 67.2178 78.3333C67.2178 77.1049 66.7572 75.9532 65.8358 75.1087C64.9145 74.1106 63.7628 73.6499 62.5344 73.6499Z" fill="black"/>
<path d="M62.5344 99.4896C62.9183 99.4896 63.3022 99.6431 63.6093 99.9502C64.2235 100.564 64.2235 101.486 63.6093 102.1L57.0064 108.703C56.6993 109.01 56.3154 109.164 55.9315 109.164C55.5476 109.164 55.1637 109.01 54.8566 108.703L51.8622 105.709C51.248 105.094 51.248 104.173 51.8622 103.559C52.1694 103.252 52.5533 103.098 52.9372 103.098C53.321 103.098 53.7049 103.252 54.012 103.559L55.9315 105.478L61.3827 100.027C61.6898 99.6431 62.0737 99.4896 62.5344 99.4896ZM62.5344 96.4185C61.3059 96.4185 60.1543 96.8791 59.3097 97.8004L56.0083 101.102C55.1637 100.411 54.0888 100.027 53.0139 100.027C51.7855 100.027 50.6338 100.488 49.7893 101.409C48.0234 103.175 48.0234 106.092 49.7893 107.935L52.7836 110.929C53.6281 111.774 54.7798 112.311 56.0083 112.311C57.2367 112.311 58.3884 111.851 59.2329 110.929L65.8358 104.327C66.6804 103.482 67.2178 102.33 67.2178 101.102C67.2178 99.8734 66.7572 98.7218 65.8358 97.8772C64.9145 96.8791 63.7628 96.4185 62.5344 96.4185Z" fill="black"/>
</svg>
