<svg width="214" height="151" viewBox="0 0 214 151" fill="none" xmlns="http://www.w3.org/2000/svg">
<rect x="34.7148" y="23.252" width="88.7494" height="105.061" fill="#915E24"/>
<rect x="42.2305" y="34.0361" width="73.7168" height="86.9659" rx="8" fill="white"/>
<path d="M54.8828 64.9152L49.4531 59.5856L50.4599 56.6696L53.5771 55.5633L55.4876 57.4739L60.4148 52.9489L63.1298 52.1445L64.9398 53.6529V56.6696L56.5937 64.9152H54.8828Z" fill="#6EFF56"/>
<path d="M54.8828 88.8493L49.4531 83.5197L50.4599 80.6036L53.5771 79.4974L55.4876 81.408L60.4148 76.883L63.1298 76.0786L64.9398 77.587V80.6036L56.5937 88.8493H54.8828Z" fill="#6EFF56"/>
<path d="M54.8828 110.443L49.4531 105.113L50.4599 102.197L53.5771 101.091L55.4876 103.001L60.4148 98.4762L63.1298 97.6719L64.9398 99.1803V102.197L56.5937 110.443H54.8828Z" fill="#6EFF56"/>
<rect x="63.1523" y="28.1948" width="31.8789" height="12.4104" fill="#B4B5C5"/>
<rect x="59.5078" y="19.9756" width="39.3817" height="8.21982" fill="#B4B5C5"/>
<rect width="13.3816" height="5.52907" transform="matrix(1 0 0 -1 72.5078 19.9756)" fill="#B4B5C5"/>
<rect x="105.113" y="56.7715" width="73.9217" height="75.1229" rx="6" fill="#CEA27A"/>
<path d="M137.082 104.277L128.528 96.5345L122.413 98.0288L120.512 104.956L134.775 118.948L140.344 118.269L164.931 94.6328L165.881 87.1616L160.584 84.1733L154.607 87.1616L137.082 104.277Z" fill="#FFF960"/>
<path d="M152.304 58.1597H132.176V78.4584L142.066 73.9476L152.304 78.4584V58.1597Z" fill="#905E24"/>
</svg>
