<svg width="214" height="151" viewBox="0 0 214 151" fill="none" xmlns="http://www.w3.org/2000/svg">
<rect x="23.7227" y="77.1721" width="98.4384" height="41.1598" fill="#FFCD4C"/>
<rect x="123.031" y="94.3232" width="7.86328" height="21.1015" fill="#675F79"/>
<rect x="121.469" y="29.7834" width="18.1602" height="19.9246" fill="#B4B5C5"/>
<path d="M190.383 115.263L141.312 109.638V121.045H190.383V115.263Z" fill="#B4B5C5"/>
<rect x="131.766" y="42.8652" width="7.86328" height="77.4155" fill="#675F79"/>
<rect x="141.387" y="42.6794" width="33.5103" height="32.907" fill="#FFCD4C"/>
<path d="M141.387 75.5864H186.227V114.49L141.387 109.712V75.5864Z" fill="#FFCD4C"/>
<rect x="157.617" y="75.5864" width="11.8674" height="17.2551" fill="#ED8E20"/>
<rect x="153.781" y="42.0049" width="7.55487" height="12.1324" fill="#ED8E20"/>
<rect x="123.031" y="94.3232" width="7.86328" height="8.64648" fill="#B4B5C5"/>
<rect x="23.9062" y="93.4163" width="4.83354" height="8.62144" fill="#DE141F"/>
<rect x="24.1172" y="83.7727" width="8.24219" height="4.16449" fill="#DE141F"/>
<circle cx="49.3637" cy="111.548" r="17.0043" fill="#675F79"/>
<circle cx="49.3632" cy="111.548" r="7.53116" fill="#B4B5C5"/>
<circle cx="96.2443" cy="107.192" r="21.5412" fill="#675F79"/>
<circle cx="96.246" cy="107.192" r="9.43347" fill="#B4B5C5"/>
<rect x="23.7227" y="56.5986" width="24.4755" height="20.5742" fill="#ED8E20"/>
<path d="M48.2891 23.2627H93.4952L114.904 77.1729H48.2891V23.2627Z" fill="#ED8E20"/>
<path d="M56.1484 68.8512V31.6588L57.0842 30.5649H87.7132L102.246 67.1322V68.8512H56.1484Z" fill="#C4DFF8"/>
<path d="M62.2982 50.8013H57.5014H56.9867L55.8734 52.5996L54.8477 65.8729L56.3886 69.8977C62.7826 69.755 75.6734 69.4524 76.0844 69.3839C76.4955 69.3154 76.9408 67.0147 77.112 65.8729L74.7143 63.047L65.0376 62.5331V53.7128L62.2982 50.8013Z" fill="#675F79"/>
<path d="M87.558 69.8977V63.047V62.5331L97.5772 53.7128L102.373 65.8729V69.8977H87.558Z" fill="#675F79"/>
</svg>
