<svg width="214" height="151" viewBox="0 0 214 151" fill="none" xmlns="http://www.w3.org/2000/svg">
<path d="M33.346 118.332H27.3711C25.162 118.332 23.3711 116.541 23.3711 114.332V77.1721H118.161C120.37 77.1721 122.161 78.963 122.161 81.1721V114.332C122.161 116.541 120.37 118.332 118.161 118.332H115.348M65.0149 118.332H77.6583" stroke="black" stroke-width="3"/>
<path d="M23.3711 59.9487C23.3711 57.7396 25.162 55.9487 27.3711 55.9487H48.1992V77.1729H23.3711V59.9487Z" stroke="black" stroke-width="3"/>
<path d="M140.816 46.4246C140.816 44.2154 142.607 42.4246 144.816 42.4246H170.897C173.106 42.4246 174.897 44.2154 174.897 46.4246V71.5864C174.897 73.7956 173.106 75.5864 170.897 75.5864H140.816V46.4246Z" stroke="black" stroke-width="3"/>
<path d="M153.781 42.4246H161.934V53.4933C161.934 54.5978 161.039 55.4933 159.934 55.4933H155.781C154.677 55.4933 153.781 54.5978 153.781 53.4933V42.4246Z" stroke="black" stroke-width="3"/>
<path d="M157.562 75.5864H169.485V91.7083C169.485 92.8128 168.589 93.7083 167.485 93.7083H159.562C158.458 93.7083 157.562 92.8128 157.562 91.7083V75.5864Z" stroke="black" stroke-width="3"/>
<path d="M140.754 75.5864H182.227C184.437 75.5864 186.227 77.3773 186.227 79.5864V115.425" stroke="black" stroke-width="3"/>
<path d="M130.895 42.4246H140.467V121.034H134.895C132.685 121.034 130.895 119.243 130.895 117.034V42.4246Z" stroke="black" stroke-width="3"/>
<path d="M120.418 32.4495C120.418 30.2403 122.209 28.4495 124.418 28.4495H136.467C138.676 28.4495 140.467 30.2403 140.467 32.4495V42.4246H120.418V32.4495Z" stroke="black" stroke-width="3"/>
<path d="M120.418 47.0027C120.418 49.2118 122.209 51.0027 124.418 51.0027H130.894V42.8653H120.418V47.0027Z" stroke="black" stroke-width="3"/>
<path d="M23.4297 83.3582H30.0463C31.6172 83.3582 32.8906 84.6316 32.8906 86.2025V86.2025C32.8906 87.7733 31.6172 89.0468 30.0463 89.0468H23.4297V83.3582Z" stroke="black" stroke-width="3"/>
<path d="M23.4297 92.7913H25.3092C27.5184 92.7913 29.3092 94.5821 29.3092 96.7913V98.7254C29.3092 100.935 27.5184 102.725 25.3092 102.725H23.4297V92.7913Z" stroke="black" stroke-width="3"/>
<path d="M94.4618 25.7829C93.8559 24.2612 92.3835 23.2627 90.7456 23.2627H52.1982C49.9891 23.2627 48.1982 25.0536 48.1982 27.2627V77.1729H114.926L94.4618 25.7829Z" stroke="black" stroke-width="3"/>
<path d="M23.6055 63.3818H30.782M23.6055 71.0422H30.782M122.471 94.4493H130.604M122.471 103.233H130.604M122.471 115.433H130.604M158.279 68.7035H169.639M167.367 107.042H180.904M172.763 101.741H180.904M23.6055 107.042H31.6931M66.0446 107.042H73.6782M118.066 107.042H121.844" stroke="black" stroke-width="3" stroke-linecap="round" stroke-linejoin="round"/>
<path d="M88.7472 32.015C88.4442 31.2541 87.708 30.7549 86.8891 30.7549H57.5654C56.4608 30.7549 55.5654 31.6503 55.5654 32.7549V67.6808C55.5654 68.7853 56.4608 69.6808 57.5654 69.6808H100.797C102.211 69.6808 103.178 68.2542 102.655 66.9409L88.7472 32.015Z" stroke="black" stroke-width="3"/>
<path d="M65.1034 63.5425V54.6323C65.1034 52.4232 63.3125 50.6323 61.1034 50.6323H59.5703C57.3612 50.6323 55.5703 52.4232 55.5703 54.6323V63.5425" stroke="black" stroke-width="3"/>
<path d="M55.5703 66.407C55.5703 64.5991 57.0359 63.1335 58.8438 63.1335H73.8914C75.6993 63.1335 77.1648 64.5991 77.1648 66.407V66.407C77.1648 68.2149 75.6993 69.6804 73.8914 69.6804H58.8437C57.0359 69.6804 55.5703 68.2149 55.5703 66.407V66.407Z" stroke="black" stroke-width="3"/>
<path d="M87.3366 69.6804V64.5345C87.3366 63.4736 87.7581 62.4562 88.5082 61.7061L88.7471 61.4672M97.1057 53.1085L88.7471 61.4672M88.7471 61.4672L83.536 56.256M83.536 56.256L87.3366 52.4553M83.536 56.256L79.6641 60.1279" stroke="black" stroke-width="3" stroke-linecap="round" stroke-linejoin="round"/>
<path d="M190.312 115.292L140.816 110.165V121.034H190.312V115.292Z" stroke="black" stroke-width="3" stroke-linecap="round" stroke-linejoin="round"/>
<circle cx="49.1197" cy="111.625" r="17.2837" stroke="black" stroke-width="3"/>
<circle cx="49.1203" cy="111.625" r="7.1555" stroke="black" stroke-width="3"/>
<circle cx="96.2365" cy="107.192" r="21.717" stroke="black" stroke-width="3"/>
<circle cx="96.2412" cy="107.192" r="9.26072" stroke="black" stroke-width="3"/>
</svg>
