<svg width="214" height="150" viewBox="0 0 214 150" fill="none" xmlns="http://www.w3.org/2000/svg">
<rect x="36.2617" y="28.3262" width="141.475" height="93.3479" rx="9" stroke="black" stroke-width="4"/>
<path d="M70.1512 83.364C80.7411 83.364 89.3259 74.7792 89.3259 64.1893H70.1512V45.0146C59.5613 45.0146 50.9766 53.5994 50.9766 64.1893C50.9766 74.7792 59.5613 83.364 70.1512 83.364Z" stroke="black" stroke-width="4"/>
<path d="M90.2751 56.9768C90.2751 49.6689 84.3509 43.7446 77.043 43.7446V56.9768H90.2751Z" stroke="black" stroke-width="4"/>
<path d="M103.648 45.52H130.09" stroke="black" stroke-width="4" stroke-linecap="round" stroke-linejoin="round"/>
<path d="M103.648 53.0747H130.09" stroke="black" stroke-width="4" stroke-linecap="round" stroke-linejoin="round"/>
<path d="M103.648 60.6294H123.484" stroke="black" stroke-width="4" stroke-linecap="round" stroke-linejoin="round"/>
<path d="M128.703 109.84L128.703 100.677" stroke="black" stroke-width="4" stroke-linecap="round" stroke-linejoin="round"/>
<path d="M135.309 109.84L135.309 102.566" stroke="black" stroke-width="4" stroke-linecap="round" stroke-linejoin="round"/>
<path d="M141.914 109.84L141.914 96.2693" stroke="black" stroke-width="4" stroke-linecap="round" stroke-linejoin="round"/>
<path d="M148.52 109.84L148.52 90.604" stroke="black" stroke-width="4" stroke-linecap="round" stroke-linejoin="round"/>
<path d="M155.125 109.84L155.125 93.437" stroke="black" stroke-width="4" stroke-linecap="round" stroke-linejoin="round"/>
<path d="M161.73 109.84L161.73 83.3639" stroke="black" stroke-width="4" stroke-linecap="round" stroke-linejoin="round"/>
<path d="M159.11 49.52C159.41 49.52 159.71 49.62 160.01 49.72C160.21 49.82 160.51 50.02 160.61 50.22C160.71 50.42 160.91 50.62 161.01 50.82L163.41 57.92C163.81 58.92 163.21 60.12 162.21 60.42C162.01 60.52 161.81 60.52 161.51 60.52C160.71 60.52 159.91 60.02 159.61 59.22L158.71 56.72C155.21 63.42 147.81 75.72 139.21 79.42C136.51 80.62 134.01 80.82 131.61 80.82C130.41 80.82 129.21 80.72 128.01 80.62C126.91 80.52 125.81 80.52 124.71 80.52C122.91 80.52 121.11 80.72 119.21 81.42C114.91 82.92 112.41 85.92 109.71 89.22C106.61 93.02 103.31 97.02 97.1096 98.32C96.0096 98.52 94.9096 98.62 93.9096 98.62C91.5096 98.62 89.4096 98.12 87.5096 97.62C85.7096 97.12 83.9096 96.72 82.0096 96.72C81.3096 96.72 80.5096 96.82 79.7096 96.92C71.5096 98.42 61.0096 108.32 60.9096 108.42C60.5096 108.82 60.0096 108.92 59.5096 108.92C59.0096 108.92 58.4096 108.72 58.0096 108.32C57.2096 107.52 57.3096 106.22 58.1096 105.52C58.6096 105.12 69.6096 94.72 79.0096 93.02C80.0096 92.82 81.0096 92.72 82.0096 92.72C84.4096 92.72 86.5096 93.22 88.5096 93.72C90.3096 94.22 92.0096 94.62 93.9096 94.62C94.7096 94.62 95.5096 94.52 96.3096 94.42C101.11 93.42 103.61 90.32 106.61 86.72C109.41 83.32 112.51 79.52 117.91 77.72C120.41 76.82 122.61 76.62 124.71 76.62C125.91 76.62 127.11 76.72 128.31 76.82C129.41 76.92 130.51 76.92 131.51 76.92C133.51 76.92 135.41 76.72 137.61 75.82C144.81 72.82 151.51 61.72 154.91 55.42L152.11 56.52C151.91 56.62 151.61 56.62 151.41 56.62C150.61 56.62 149.81 56.12 149.51 55.32C149.11 54.32 149.61 53.12 150.61 52.72L158.21 49.72C158.21 49.72 158.21 49.72 158.31 49.72C158.61 49.62 158.81 49.62 159.11 49.52C159.01 49.52 159.01 49.52 159.11 49.52ZM159.11 45.52C159.01 45.52 159.01 45.52 158.91 45.52C158.31 45.52 157.61 45.62 157.01 45.82C156.91 45.82 156.91 45.82 156.81 45.92L149.21 48.92C146.11 50.12 144.61 53.62 145.81 56.72C146.21 57.82 147.01 58.82 147.91 59.42C143.71 66.12 139.51 70.52 136.11 72.02C134.71 72.62 133.41 72.82 131.61 72.82C130.71 72.82 129.71 72.72 128.61 72.72C127.31 72.62 126.11 72.52 124.71 72.52C121.71 72.52 119.21 72.92 116.61 73.82C110.11 76.02 106.51 80.52 103.51 84.12C100.51 87.82 98.8096 89.72 95.5096 90.42C95.0096 90.52 94.4096 90.62 93.9096 90.62C92.5096 90.62 91.1096 90.22 89.4096 89.82C87.4096 89.32 84.9096 88.72 81.9096 88.72C80.7096 88.72 79.4096 88.82 78.2096 89.02C67.8096 90.92 56.6096 101.42 55.3096 102.62C52.9096 104.92 52.8096 108.72 55.1096 111.12C56.2096 112.32 57.8096 113.02 59.5096 113.02C61.0096 113.02 62.5096 112.42 63.6096 111.42C66.3096 108.92 74.6096 102.02 80.4096 100.92C80.9096 100.82 81.4096 100.82 81.9096 100.82C83.3096 100.82 84.8096 101.22 86.4096 101.62C88.4096 102.12 90.9096 102.72 93.8096 102.72C95.1096 102.72 96.5096 102.62 97.8096 102.32C105.41 100.82 109.41 95.82 112.71 91.92C115.21 88.92 117.11 86.52 120.41 85.42C121.71 85.02 123.01 84.82 124.61 84.82C125.61 84.82 126.61 84.92 127.61 84.92C128.81 85.02 130.11 85.12 131.41 85.12C134.81 85.12 137.71 84.52 140.51 83.32C147.91 80.22 154.21 72.12 158.91 64.42C159.61 64.72 160.41 64.92 161.21 64.92C161.91 64.92 162.51 64.82 163.21 64.62C164.71 64.12 165.91 63.02 166.61 61.62C167.31 60.22 167.41 58.52 166.91 57.02L164.51 50.02C164.51 49.92 164.51 49.92 164.41 49.82C164.21 49.22 163.81 48.62 163.41 48.02C162.91 47.42 162.21 46.92 161.51 46.52C160.91 45.82 160.01 45.52 159.11 45.52Z" fill="black"/>
</svg>
