<svg width="214" height="150" viewBox="0 0 214 150" fill="none" xmlns="http://www.w3.org/2000/svg">
<rect x="35.7734" y="28.2017" width="141.648" height="93.5411" rx="10" fill="#E9F4FF"/>
<path d="M70.2266 94.3778L55.3633 105.563V110.273L60.9549 111.892L78.3222 99.5292L88.772 100.707L102.018 99.5292L112.762 87.902L121.004 83.781L142.051 81.4261L158.535 63.6169H161.479L165.306 58.9072L160.449 48.4575H156.328L146.761 52.7259L149.41 58.9072L148.38 63.6169L137.489 74.5084H123.065L110.407 79.5125L102.018 89.2264L93.7761 93.053L82.4432 90.8454L70.2266 94.3778Z" fill="#6EFF56"/>
<path d="M90.2751 56.9768C90.2751 49.6689 84.3509 43.7446 77.043 43.7446V56.9768H90.2751Z" fill="#FF511A"/>
<path d="M70.1512 83.0793C80.7411 83.0793 89.3259 74.4945 89.3259 63.9046H70.1512V44.73C59.5613 44.73 50.9766 53.3148 50.9766 63.9046C50.9766 74.4945 59.5613 83.0793 70.1512 83.0793Z" fill="#FFF960"/>
</svg>
