<svg width="214" height="150" viewBox="0 0 214 150" fill="none" xmlns="http://www.w3.org/2000/svg">
<g clip-path="url(#clip0)">
<path d="M43.7572 25.1642L42.4641 26.6899L42.4641 26.6899L43.7572 25.1642ZM75.9468 82.3592L77.4731 83.6516L77.4731 83.6516L75.9468 82.3592ZM45.0795 79.0767L44.5563 81.007L44.5563 81.007L45.0795 79.0767ZM57.1137 104.601L58.64 105.893L58.64 105.893L57.1137 104.601ZM47.4764 115.982L45.9501 114.69L45.9501 114.69L47.4764 115.982ZM40.1414 87.5901L41.5573 86.1775L41.5573 86.1775L40.1414 87.5901ZM59.2044 15.6625L60.0148 13.8341L60.0148 13.834L59.2044 15.6625ZM58.3216 15.6981L59.2767 17.4553L59.2767 17.4553L58.3216 15.6981ZM48.9086 20.8146L47.9535 19.0574L48.9086 20.8146ZM43.9262 23.5228L42.9711 21.7656L42.9711 21.7656L43.9262 23.5228ZM41.9139 79.2406L41.1941 77.3747L41.1941 77.3747L41.9139 79.2406ZM149.966 25.4564C148.877 25.6455 148.148 26.6809 148.337 27.7692C148.527 28.8575 149.562 29.5864 150.65 29.3974L149.966 25.4564ZM49.8004 120.091L51.3433 118.819L51.343 118.818L49.8004 120.091ZM141.855 144.041L140.111 145.021L140.111 145.021L141.855 144.041ZM91.8081 101.582L90.8289 99.8377L90.8289 99.8377L91.8081 101.582ZM89.1729 132.511L87.1784 132.658L87.1784 132.658L89.1729 132.511ZM66.3964 115.851L65.4172 114.107L65.4172 114.107L66.3964 115.851ZM53.3927 123.153L54.372 124.897L54.372 124.897L53.3927 123.153ZM79.8771 135.743L81.5327 134.621L81.5327 134.621L79.8771 135.743ZM154.115 130.677L156.064 130.229L156.064 130.229L154.115 130.677ZM153.913 131.537L152.369 130.266L152.369 130.266L153.913 131.537ZM147.103 139.808L148.647 141.08L148.647 141.08L147.103 139.808ZM143.498 144.186L141.954 142.915L141.954 142.915L143.498 144.186ZM88.4112 135.588L90.1066 136.649L90.1066 136.649L88.4112 135.588ZM52.1318 122.918L50.5889 124.19L50.5892 124.191L52.1318 122.918ZM157.932 38.4466C157.628 39.5086 158.242 40.6158 159.304 40.9197C160.366 41.2236 161.473 40.6091 161.777 39.5472L157.932 38.4466ZM145.351 19.8487L119.32 41.3299L121.866 44.4151L147.897 22.9338L145.351 19.8487ZM42.4641 26.6899L90.9548 67.7889L93.5411 64.7375L45.0503 23.6385L42.4641 26.6899ZM74.4204 81.0668L70.9192 85.2017L73.9719 87.7865L77.4731 83.6516L74.4204 81.0668ZM72.9688 84.5637L45.6027 77.1463L44.5563 81.007L71.9224 88.4244L72.9688 84.5637ZM70.9192 85.2017L55.5874 103.308L58.64 105.893L73.9719 87.7865L70.9192 85.2017ZM55.5874 103.308L45.9501 114.69L49.0028 117.275L58.64 105.893L55.5874 103.308ZM38.7256 89.0027L55.6979 106.014L58.5295 103.188L41.5573 86.1775L38.7256 89.0027ZM90.484 27.3393L60.0148 13.8341L58.3939 17.4909L88.8631 30.9962L90.484 27.3393ZM90.9465 30.7103L101.841 21.72L99.2951 18.6348L88.4006 27.6252L90.9465 30.7103ZM119.32 41.3299L101.773 55.8099L104.319 58.8951L121.866 44.4151L119.32 41.3299ZM101.773 55.8099L90.975 64.7206L93.5209 67.8058L104.319 58.8951L101.773 55.8099ZM57.3665 13.9409L47.9535 19.0574L49.8638 22.5717L59.2767 17.4553L57.3665 13.9409ZM47.9535 19.0574L42.9711 21.7656L44.8813 25.28L49.8638 22.5717L47.9535 19.0574ZM104.165 55.6947L50.0275 19.1568L47.7898 22.4723L101.927 59.0102L104.165 55.6947ZM100.433 21.5852L110.458 33.733L113.543 31.1871L103.518 19.0393L100.433 21.5852ZM108.627 35.3809L90.484 27.3393L88.8631 30.9962L107.006 39.0378L108.627 35.3809ZM110.593 32.3253L106.543 35.6668L109.089 38.752L113.139 35.4104L110.593 32.3253ZM110.458 33.733C110.106 33.3071 110.167 32.6768 110.593 32.3253L113.139 35.4104C114.417 34.3559 114.598 32.465 113.543 31.1871L110.458 33.733ZM101.841 21.72C101.415 22.0715 100.785 22.0112 100.433 21.5852L103.518 19.0393C102.464 17.7614 100.573 17.5803 99.2951 18.6348L101.841 21.72ZM41.1941 77.3747C36.411 79.2198 35.1047 85.3735 38.7256 89.0027L41.5573 86.1775C39.9782 84.5948 40.5479 81.9113 42.6337 81.1066L41.1941 77.3747ZM45.6027 77.1463C44.1463 76.7516 42.6019 76.8316 41.1941 77.3747L42.6337 81.1066C43.2477 80.8698 43.9212 80.8349 44.5563 81.007L45.6027 77.1463ZM147.897 22.9338C153.222 18.5398 161.1 19.2943 165.494 24.619L168.579 22.073C162.779 15.0445 152.38 14.0486 145.351 19.8487L147.897 22.9338ZM45.0503 23.6385C45.5866 24.093 45.4989 24.9443 44.8813 25.28L42.9711 21.7656C41.1183 22.7726 40.8554 25.3265 42.4641 26.6899L45.0503 23.6385ZM49.0109 115.992C49.3189 116.365 49.3154 116.906 49.0028 117.275L45.9501 114.69C45.0121 115.798 45.0018 117.418 45.9257 118.538L49.0109 115.992ZM60.0148 13.834C59.1633 13.4566 58.1848 13.4961 57.3665 13.9409L59.2767 17.4553C59.0039 17.6036 58.6778 17.6167 58.3939 17.4909L60.0148 13.834ZM90.975 64.7206C84.9818 69.6663 79.4417 75.1367 74.4204 81.0668L77.4731 83.6516C82.3406 77.903 87.7112 72.6001 93.5209 67.8058L90.975 64.7206ZM150.308 27.4269C150.65 29.3974 150.649 29.3976 150.648 29.3977C150.648 29.3978 150.647 29.3979 150.647 29.398C150.646 29.3982 150.645 29.3984 150.644 29.3985C150.642 29.3988 150.64 29.3991 150.639 29.3994C150.636 29.3998 150.634 29.4001 150.633 29.4002C150.632 29.4005 150.634 29.4001 150.64 29.3992C150.653 29.3975 150.68 29.3938 150.721 29.3894C150.804 29.3805 150.939 29.369 151.118 29.364C151.478 29.3539 151.995 29.3711 152.592 29.483C153.771 29.7043 155.231 30.2867 156.457 31.773L159.543 29.227C157.587 26.8569 155.2 25.9027 153.329 25.5516C152.4 25.3773 151.592 25.3492 151.007 25.3655C150.713 25.3737 150.471 25.3932 150.295 25.4122C150.206 25.4217 150.134 25.431 150.078 25.4389C150.051 25.4428 150.027 25.4463 150.009 25.4493C149.999 25.4508 149.991 25.4522 149.984 25.4533C149.98 25.4539 149.977 25.4545 149.974 25.455C149.972 25.4553 149.971 25.4555 149.97 25.4557C149.969 25.4559 149.968 25.456 149.968 25.4561C149.967 25.4563 149.966 25.4564 150.308 27.4269ZM121.403 41.0441L108.627 35.3809L107.006 39.0378L119.782 44.701L121.403 41.0441ZM45.9257 118.538L48.2578 121.364L51.343 118.818L49.0109 115.992L45.9257 118.538ZM163.808 42.2167L137.777 63.698L140.323 66.7832L166.354 45.3019L163.808 42.2167ZM143.598 143.061L112.449 87.6512L108.962 89.6114L140.111 145.021L143.598 143.061ZM90.8289 99.8377L86.1046 102.491L88.0631 105.978L92.7874 103.325L90.8289 99.8377ZM85.0893 104.382L87.1784 132.658L91.1675 132.363L89.0785 104.087L85.0893 104.382ZM86.1046 102.491L65.4172 114.107L67.3757 117.595L88.0631 105.978L86.1046 102.491ZM65.4172 114.107L52.4135 121.41L54.372 124.897L67.3757 117.595L65.4172 114.107ZM81.5327 134.621L68.0521 114.729L64.7408 116.973L78.2215 136.865L81.5327 134.621ZM144.689 98.6477L152.166 131.126L156.064 130.229L148.587 97.7502L144.689 98.6477ZM147.911 99.7415L158.805 90.7512L156.259 87.6661L145.365 96.6564L147.911 99.7415ZM120.23 78.178L109.432 87.0887L111.978 90.1739L122.776 81.2631L120.23 78.178ZM152.369 130.266L145.559 138.537L148.647 141.08L155.457 132.809L152.369 130.266ZM145.559 138.537L141.954 142.915L145.042 145.457L148.647 141.08L145.559 138.537ZM119.663 80.5045L145.263 140.592L148.943 139.024L123.343 78.9367L119.663 80.5045ZM159.21 86.5279L149.185 74.3801L146.1 76.926L156.125 89.0738L159.21 86.5279ZM140.237 79.3085L144.689 98.6477L148.587 97.7502L144.135 78.411L140.237 79.3085ZM144.962 73.9756L140.913 77.3172L143.459 80.4023L147.508 77.0608L144.962 73.9756ZM149.185 74.3801C148.131 73.1021 146.24 72.9211 144.962 73.9756L147.508 77.0608C147.082 77.4123 146.452 77.352 146.1 76.926L149.185 74.3801ZM158.805 90.7512C160.083 89.6967 160.264 87.8058 159.21 86.5279L156.125 89.0738C155.773 88.6479 155.834 88.0176 156.259 87.6661L158.805 90.7512ZM86.7157 134.527C85.5298 136.422 82.7869 136.472 81.5327 134.621L78.2215 136.865C81.0975 141.109 87.3873 140.995 90.1066 136.649L86.7157 134.527ZM87.1784 132.658C87.2268 133.314 87.0648 133.969 86.7157 134.527L90.1066 136.649C90.907 135.369 91.2787 133.868 91.1675 132.363L87.1784 132.658ZM166.354 45.3019C173.383 39.502 174.38 29.1017 168.579 22.073L165.494 24.619C169.888 29.9435 169.133 37.8226 163.808 42.2167L166.354 45.3019ZM140.111 145.021C141.145 146.859 143.702 147.085 145.042 145.457L141.954 142.915C142.401 142.372 143.254 142.448 143.598 143.061L140.111 145.021ZM50.5892 124.191C51.5132 125.311 53.1062 125.608 54.372 124.897L52.4135 121.41C52.8354 121.173 53.3664 121.272 53.6744 121.645L50.5892 124.191ZM152.166 131.126C152.097 130.824 152.171 130.506 152.369 130.266L155.457 132.809C156.049 132.09 156.273 131.136 156.064 130.229L152.166 131.126ZM109.432 87.0887C103.622 91.883 97.3967 96.1496 90.8289 99.8377L92.7874 103.325C99.5626 99.5208 105.985 95.1196 111.978 90.1739L109.432 87.0887ZM159.854 38.9969C161.777 39.5472 161.777 39.5463 161.778 39.5455C161.778 39.5452 161.778 39.5443 161.778 39.5437C161.779 39.5425 161.779 39.5412 161.779 39.5399C161.78 39.5371 161.781 39.5341 161.782 39.5308C161.784 39.5242 161.786 39.5164 161.788 39.5075C161.793 39.4896 161.799 39.4671 161.806 39.4402C161.82 39.3865 161.837 39.3149 161.857 39.227C161.896 39.0512 161.945 38.8085 161.99 38.5101C162.08 37.9157 162.158 37.0861 162.119 36.1145C162.041 34.173 161.488 31.585 159.543 29.227L156.457 31.773C157.694 33.2715 158.068 34.9319 158.122 36.2747C158.149 36.9453 158.094 37.5169 158.035 37.913C158.005 38.1099 157.974 38.2599 157.954 38.353C157.943 38.3994 157.935 38.4313 157.931 38.4474C157.929 38.4555 157.928 38.4596 157.928 38.4595C157.928 38.4594 157.928 38.4584 157.929 38.4562C157.929 38.4552 157.93 38.4538 157.93 38.4522C157.93 38.4514 157.93 38.4506 157.931 38.4496C157.931 38.4492 157.931 38.4484 157.931 38.4482C157.931 38.4474 157.932 38.4466 159.854 38.9969ZM137.101 65.6893L140.237 79.3085L144.135 78.411L140.999 64.7919L137.101 65.6893ZM53.6747 121.645L51.3433 118.819L48.2575 121.364L50.5889 124.19L53.6747 121.645ZM125.159 74.1104L120.23 78.178L122.776 81.2631L127.705 77.1956L125.159 74.1104ZM137.777 63.698L128.98 70.9574L131.526 74.0426L140.323 66.7832L137.777 63.698ZM128.98 70.9574L125.159 74.1104L127.705 77.1956L131.526 74.0426L128.98 70.9574Z" fill="black"/>
<path d="M77.8761 93.4158C79.1619 92.4526 80.9775 92.6697 82 93.9087V93.9087C83.0342 95.1619 82.8864 97.0098 81.6662 98.0827L56.4036 120.296C54.5691 121.909 51.7638 121.685 50.209 119.801V119.801C48.6372 117.896 48.9757 115.064 50.9522 113.584L77.8761 93.4158Z" stroke="black" stroke-width="4"/>
</g>
<defs>
<clipPath id="clip0">
<rect width="214" height="150" fill="white"/>
</clipPath>
</defs>
</svg>
