<svg width="214" height="150" viewBox="0 0 214 150" fill="none" xmlns="http://www.w3.org/2000/svg">
<path d="M50.5 20.5L43.5 24L91.5 65.5L102.5 57L50.5 20.5Z" fill="#A0A3B6"/>
<path d="M122 80.5L111 89L141 143.5H144L147.5 138.5L122 80.5Z" fill="#A0A3B6"/>
<path d="M147.5 75L142.5 79L147 98L158.5 89L147.5 75Z" fill="#A0A3B6"/>
<path d="M111 33.5L107.5 36.5L91.5 28.5L101.5 20L111 33.5Z" fill="#A0A3B6"/>
<path d="M58.5 15.5L51 20L103.5 57.5L92 66.5L78.5 81L92 101.5L99 97.5L106.5 92.5L122 79.5L147.5 137.5L154.5 130.5L139 66.5L166 42.5L169.5 36.5V28L163.5 20L154.5 18L147.5 20L120 42.5L58.5 15.5Z" fill="#E8E9F1"/>
<path d="M87 104.5L92.2698 100.935C98.4663 96.7434 99.524 88.0401 94.5119 82.4862C89.6687 77.1194 81.266 77.0597 76.347 82.3571L72.5 86.5L43.5 78.5L39 81.5V86.5L56.5 104L47.5 116.5L53 123L66 116.5L80.5 137.5H87L89 131L87 104.5Z" fill="#E8E9F1"/>
<path d="M67 116L87 104.5L89.5 133.5L84.5 138L79.5 135.5L67 116Z" fill="#A0A3B6"/>
<path d="M57.5 104.5L71.5 86.5L44.5 78.5L39 80.5V85.5L57.5 104.5Z" fill="#A0A3B6"/>
<path d="M53.5 122.5L48.5 116.5L79.5 92.5L83 96.5L53.5 122.5Z" fill="#A0A3B6"/>
</svg>
