<svg width="214" height="150" viewBox="0 0 214 150" fill="none" xmlns="http://www.w3.org/2000/svg">
<path d="M173.123 101.653L174.963 102.436L174.963 102.436L173.123 101.653ZM89.5824 87.3135L87.5824 87.3135L87.5824 89.3135H89.5824V87.3135ZM98.3974 87.3135V89.3135H100.397V87.3135H98.3974ZM98.3974 33.8135L96.3974 33.8135V33.8135H98.3974ZM83.9576 79.8135L85.7661 78.9594L85.2249 77.8135H83.9576V79.8135ZM87.5 87.3135L85.6916 88.1676L86.2328 89.3135H87.5V87.3135ZM181.718 87.3135L183.346 88.4763L185.606 85.3135H181.718V87.3135ZM64 79.8135V81.8135H66V79.8135H64ZM151.5 95.3135C150.395 95.3135 149.5 96.2089 149.5 97.3135C149.5 98.418 150.395 99.3135 151.5 99.3135V95.3135ZM158 99.3135C159.105 99.3135 160 98.418 160 97.3135C160 96.2089 159.105 95.3135 158 95.3135V99.3135ZM30.203 87.3135L28.2841 87.8771L30.203 87.3135ZM31.9655 93.3135L33.8844 92.7498L31.9655 93.3135ZM83.6899 132.731L81.8729 133.567L83.6899 132.731ZM28.3765 81.0953L26.4576 81.659L28.3765 81.0953ZM156.08 12.8736L156.762 14.7535L156.08 12.8736ZM157.354 13.4524L155.489 14.1748L157.354 13.4524ZM59.7452 134.158L60.8164 135.847L59.7452 134.158ZM50.0387 132.947L48.1781 132.213L50.0387 132.947ZM78.3331 44.9925L76.3331 44.9925L78.3331 44.9925ZM89.5824 25.8135L87.5824 25.8135L89.5824 25.8135ZM168.912 118.706L166.933 118.414L168.912 118.706ZM35.5196 44.9925L33.5196 44.9925L35.5196 44.9925ZM98.3974 25.8135L100.397 25.8135L98.3974 25.8135ZM150.77 132.737L148.958 131.89L150.77 132.737ZM158.631 16.7502L160.496 16.0278L158.631 16.7502ZM158.04 18.0514L158.722 19.9314L158.04 18.0514ZM173.672 106.007C174.069 104.728 174.5 103.526 174.963 102.436L171.282 100.87C170.755 102.11 170.28 103.442 169.852 104.819L173.672 106.007ZM170.89 118.997C170.989 118.329 171.095 117.641 171.21 116.939L167.263 116.292C167.144 117.016 167.034 117.726 166.933 118.414L170.89 118.997ZM171.21 116.939C171.798 113.352 172.602 109.449 173.672 106.007L169.852 104.819C168.706 108.508 167.866 112.612 167.263 116.292L171.21 116.939ZM33.5196 105.413V116.615H37.5196V105.413H33.5196ZM33.5196 116.615V117.971H37.5196V116.615H33.5196ZM169.237 114.615H35.5196V118.615H169.237V114.615ZM91.5824 87.3135L91.5824 25.8135L87.5824 25.8135L87.5824 87.3135L91.5824 87.3135ZM90.5824 26.8135H97.3974V22.8135H90.5824V26.8135ZM98.3974 85.3135H89.5824V89.3135H98.3974V85.3135ZM35.5195 77.8135H29.336V81.8135H35.5195V77.8135ZM37.5195 79.8135L37.5196 44.9925L33.5196 44.9925L33.5195 79.8135L37.5195 79.8135ZM72.9629 45.9925H77.3331V41.9925H72.9629V45.9925ZM76.3331 44.9925L76.333 79.8135L80.333 79.8135L80.3331 44.9925L76.3331 44.9925ZM74.9629 43.9925V31.0478H70.9629V43.9925H74.9629ZM71.9629 28.0478H41.4104V32.0478H71.9629V28.0478ZM36.5196 45.9925H40.4104V41.9925H36.5196V45.9925ZM40.4104 45.9925H72.9629V41.9925H40.4104V45.9925ZM38.4104 31.0478V43.9925H42.4104V31.0478H38.4104ZM96.3974 25.8135L96.3974 33.8135L100.397 33.8135L100.397 25.8135L96.3974 25.8135ZM96.3974 33.8135V87.3135H100.397V33.8135H96.3974ZM99.0799 35.6935L156.762 14.7535L155.397 10.9936L97.7149 31.9336L99.0799 35.6935ZM160.496 16.0278L159.219 12.73L155.489 14.1748L156.766 17.4726L160.496 16.0278ZM83.9576 77.8135H78.333V81.8135H83.9576V77.8135ZM82.1492 80.6677L85.6916 88.1676L89.3084 86.4593L85.7661 78.9594L82.1492 80.6677ZM174.963 102.436C176.816 98.0817 180.273 92.7756 183.346 88.4763L180.091 86.1506C176.995 90.4826 173.317 96.0876 171.282 100.87L174.963 102.436ZM87.5 89.3135H181.718V85.3135H87.5V89.3135ZM99.0799 41.5828L155.182 21.2164L153.818 17.4565L97.7149 37.8229L99.0799 41.5828ZM155.182 21.2164L158.722 19.9314L157.357 16.1715L153.818 17.4565L155.182 21.2164ZM156.5 38.3135V19.3364H152.5V38.3135H156.5ZM47 77.8135H35.5195V81.8135H47V77.8135ZM49 79.8135V71.8135H45V79.8135H49ZM48 72.8135H55.5V68.8135H48V72.8135ZM78.333 77.8135H55.5V81.8135H78.333V77.8135ZM55.5 77.8135H47V81.8135H55.5V77.8135ZM53.5 70.8135V79.8135H57.5V70.8135H53.5ZM55.5 72.8135H63V68.8135H55.5V72.8135ZM64 77.8135H55.5V81.8135H64V77.8135ZM62 71.8135V79.8135H66V71.8135H62ZM151.5 99.3135H158V95.3135H151.5V99.3135ZM26.4576 81.659L28.2841 87.8771L32.122 86.7498L30.2955 80.5317L26.4576 81.659ZM28.2841 87.8771L30.0466 93.8771L33.8844 92.7498L32.122 86.7498L28.2841 87.8771ZM30.0466 93.8771L33.6007 105.977L37.4386 104.849L33.8844 92.7498L30.0466 93.8771ZM45.5196 129.971H52V125.971H45.5196V129.971ZM50.1393 127.238L48.1781 132.213L51.8994 133.68L53.8607 128.705L50.1393 127.238ZM50.9691 136.313H59.2096V132.313H50.9691V136.313ZM52 129.971H69.5V125.971H52V129.971ZM60.8164 135.847L70.5712 129.66L68.4288 126.282L58.674 132.469L60.8164 135.847ZM69.5 129.971H81.5V125.971H69.5V129.971ZM79.683 128.807L81.8729 133.567L85.5068 131.896L83.317 127.135L79.683 128.807ZM84.5983 135.313H149.864V131.313H84.5983V135.313ZM81.5 129.971H153V125.971H81.5V129.971ZM153 129.971H158.531V125.971H153V129.971ZM152.581 133.585L154.811 128.819L151.189 127.123L148.958 131.89L152.581 133.585ZM35.5196 107.413H74.5V103.413H35.5196V107.413ZM74.5 107.413H148V103.413H74.5V107.413ZM148 107.413H171.762V103.413H148V107.413ZM81.8729 133.567C82.3625 134.632 83.4268 135.313 84.5983 135.313V131.313C84.9888 131.313 85.3436 131.541 85.5068 131.896L81.8729 133.567ZM49 71.8135C49 72.3658 48.5523 72.8135 48 72.8135V68.8135C46.3431 68.8135 45 70.1566 45 71.8135H49ZM29.336 77.8135C27.3336 77.8135 25.8933 79.7378 26.4576 81.659L30.2955 80.5317C30.4836 81.1721 30.0035 81.8135 29.336 81.8135V77.8135ZM156.762 14.7535C156.251 14.9392 155.685 14.682 155.489 14.1748L159.219 12.73C158.629 11.2082 156.931 10.4368 155.397 10.9936L156.762 14.7535ZM59.2096 136.313C59.7786 136.313 60.3359 136.152 60.8164 135.847L58.674 132.469C58.8342 132.367 59.02 132.313 59.2096 132.313V136.313ZM41.4104 28.0478C39.7535 28.0478 38.4104 29.3909 38.4104 31.0478H42.4104C42.4104 31.6001 41.9627 32.0478 41.4104 32.0478V28.0478ZM48.1781 132.213C47.4021 134.182 48.8531 136.313 50.9691 136.313V132.313C51.6744 132.313 52.158 133.024 51.8994 133.68L48.1781 132.213ZM74.9629 31.0478C74.9629 29.3909 73.6197 28.0478 71.9629 28.0478V32.0478C71.4106 32.0478 70.9629 31.6001 70.9629 31.0478H74.9629ZM77.3331 45.9925C76.7808 45.9925 76.3331 45.5447 76.3331 44.9925L80.3331 44.9925C80.3331 43.3356 78.9899 41.9925 77.3331 41.9925V45.9925ZM91.5824 25.8135C91.5824 26.3658 91.1347 26.8135 90.5824 26.8135V22.8135C88.9256 22.8135 87.5824 24.1566 87.5824 25.8135L91.5824 25.8135ZM166.933 118.414C166.3 122.711 162.713 125.971 158.531 125.971V129.971C164.857 129.971 169.992 125.094 170.89 118.997L166.933 118.414ZM37.5196 44.9925C37.5196 45.5448 37.0719 45.9925 36.5196 45.9925V41.9925C34.8628 41.9925 33.5196 43.3356 33.5196 44.9925L37.5196 44.9925ZM33.5196 117.971C33.5196 124.599 38.8922 129.971 45.5196 129.971V125.971C41.1014 125.971 37.5196 122.389 37.5196 117.971H33.5196ZM63 72.8135C62.4477 72.8135 62 72.3658 62 71.8135H66C66 70.1566 64.6569 68.8135 63 68.8135V72.8135ZM97.3974 26.8135C96.8451 26.8135 96.3974 26.3658 96.3974 25.8135L100.397 25.8135C100.397 24.1567 99.0543 22.8135 97.3974 22.8135V26.8135ZM149.864 135.313C151.028 135.313 152.088 134.64 152.581 133.585L148.958 131.89C149.123 131.538 149.476 131.313 149.864 131.313V135.313ZM156.766 17.4726C156.564 16.9499 156.83 16.3628 157.357 16.1715L158.722 19.9314C160.303 19.3575 161.103 17.5962 160.496 16.0278L156.766 17.4726Z" fill="black"/>
<path d="M39 88.8135L40.7624 94.8135" stroke="black" stroke-width="4" stroke-linecap="round"/>
<path d="M46 88.8135L47.7624 94.8135" stroke="black" stroke-width="4" stroke-linecap="round"/>
<path d="M53 88.8135L54.7624 94.8135" stroke="black" stroke-width="4" stroke-linecap="round"/>
<path d="M60 88.8135L61.7624 94.8135" stroke="black" stroke-width="4" stroke-linecap="round"/>
<rect x="99" y="72.8135" width="26" height="14" stroke="black" stroke-width="4"/>
<rect x="125" y="72.8135" width="26" height="14" stroke="black" stroke-width="4"/>
<path d="M151 72.8135H176C176.552 72.8135 177 73.2612 177 73.8135V86.8135H151V72.8135Z" stroke="black" stroke-width="4"/>
<path d="M109 60.8135C109 60.2612 109.448 59.8135 110 59.8135H134C134.552 59.8135 135 60.2612 135 60.8135V72.8135H109V60.8135Z" stroke="black" stroke-width="4"/>
<path d="M140 39.8135C140 39.2612 140.448 38.8135 141 38.8135H167C167.552 38.8135 168 39.2612 168 39.8135V52.8135C168 53.3658 167.552 53.8135 167 53.8135H141C140.448 53.8135 140 53.3658 140 52.8135V39.8135Z" stroke="black" stroke-width="4"/>
<path d="M41 53.8135C41 53.2612 41.4477 52.8135 42 52.8135H46C46.5523 52.8135 47 53.2612 47 53.8135V61.8135C47 62.3658 46.5523 62.8135 46 62.8135H42C41.4477 62.8135 41 62.3658 41 61.8135V53.8135Z" stroke="black" stroke-width="4"/>
<path d="M54 53.8135C54 53.2612 54.4477 52.8135 55 52.8135H59C59.5523 52.8135 60 53.2612 60 53.8135V61.8135C60 62.3658 59.5523 62.8135 59 62.8135H55C54.4477 62.8135 54 62.3658 54 61.8135V53.8135Z" stroke="black" stroke-width="4"/>
<path d="M66 53.8135C66 53.2612 66.4477 52.8135 67 52.8135H71C71.5523 52.8135 72 53.2612 72 53.8135V61.8135C72 62.3658 71.5523 62.8135 71 62.8135H67C66.4477 62.8135 66 62.3658 66 61.8135V53.8135Z" stroke="black" stroke-width="4"/>
<rect x="46" y="35.8135" width="4" height="4" rx="2" fill="black"/>
<rect x="55" y="35.8135" width="4" height="4" rx="2" fill="black"/>
<rect x="64" y="35.8135" width="4" height="4" rx="2" fill="black"/>
</svg>
