<svg width="214" height="150" viewBox="0 0 214 150" fill="none" xmlns="http://www.w3.org/2000/svg">
<rect x="23.6641" y="43.3467" width="107.596" height="58.5169" fill="#DE141F"/>
<rect width="91.5506" height="4.7191" transform="matrix(1 0 0 -1 35.9336 106.583)" fill="#675F79"/>
<rect width="108.539" height="10.382" transform="matrix(1 0 0 -1 28.3828 117.909)" fill="#B4B5C5"/>
<rect width="4.7191" height="13.2135" transform="matrix(1 0 0 -1 132.203 95.2568)" fill="#675F79"/>
<path d="M158.63 59.3917L167.124 67.8861H175.619L180.338 72.6052L186.001 92.8973L185.057 117.437L180.81 117.909L179.394 121.212L147.304 120.74L146.36 117.437L137.866 116.965L136.922 67.8861V59.3917H158.63Z" fill="#DE141F"/>
<path d="M158.695 74.0117H175.146L179.393 89.594L158.695 82.0342V74.0117Z" fill="#C4DFF8"/>
<path d="M156.272 120.268H147.777V116.493L149.665 110.83L156.272 104.695L165.238 102.807L174.676 106.582L179.867 114.605V119.796L174.676 120.268V116.493L170.901 111.302L163.822 109.414L157.687 114.605L156.272 120.268Z" fill="#B4B5C5"/>
<circle cx="166.182" cy="118.852" r="8.49438" fill="#675F79"/>
<circle cx="118.045" cy="118.852" r="8.49438" fill="#675F79"/>
<circle cx="96.3381" cy="118.852" r="8.49438" fill="#675F79"/>
<circle cx="42.5413" cy="118.852" r="8.49438" fill="#675F79"/>
</svg>
