<svg width="214" height="150" viewBox="0 0 214 150" fill="none" xmlns="http://www.w3.org/2000/svg">
<circle cx="43.0093" cy="118.38" r="8.96629" stroke="black" stroke-width="4"/>
<circle r="3.30337" transform="matrix(1 0 0 -1 43.0104 118.38)" fill="black"/>
<path d="M34.1562 50.8975C34.1563 49.7929 33.2608 48.8975 32.1563 48.8975C31.0517 48.8975 30.1563 49.7929 30.1562 50.8975L34.1562 50.8975ZM30.1562 94.3132C30.1562 95.4178 31.0517 96.3132 32.1562 96.3132C33.2608 96.3132 34.1562 95.4178 34.1562 94.3132L30.1562 94.3132ZM30.1562 50.8975L30.1562 94.3132L34.1562 94.3132L34.1562 50.8975L30.1562 50.8975Z" fill="black"/>
<path d="M45.4805 50.8975C45.4805 49.7929 44.585 48.8975 43.4805 48.8975C42.3759 48.8975 41.4805 49.7929 41.4805 50.8975L45.4805 50.8975ZM41.4805 94.3132C41.4805 95.4178 42.3759 96.3132 43.4805 96.3132C44.585 96.3132 45.4805 95.4178 45.4805 94.3132L41.4805 94.3132ZM45.4805 88.1784C45.4805 87.0738 44.585 86.1784 43.4805 86.1784C42.3759 86.1784 41.4805 87.0738 41.4805 88.1784L45.4805 88.1784ZM41.4805 81.5716C41.4805 82.6762 42.3759 83.5716 43.4805 83.5716C44.585 83.5716 45.4805 82.6762 45.4805 81.5716L41.4805 81.5716ZM41.4805 88.1784L41.4805 94.3132L45.4805 94.3132L45.4805 88.1784L41.4805 88.1784ZM41.4805 50.8975L41.4805 81.5716L45.4805 81.5716L45.4805 50.8975L41.4805 50.8975Z" fill="black"/>
<path d="M113.438 50.8975C113.438 49.7929 112.542 48.8975 111.438 48.8975C110.333 48.8975 109.438 49.7929 109.438 50.8975L113.438 50.8975ZM109.437 94.3132C109.437 95.4178 110.333 96.3132 111.437 96.3132C112.542 96.3132 113.437 95.4178 113.437 94.3132L109.437 94.3132ZM113.437 82.5154C113.437 81.4109 112.542 80.5154 111.437 80.5154C110.333 80.5154 109.437 81.4109 109.437 82.5154L113.437 82.5154ZM109.437 75.9087C109.437 77.0133 110.333 77.9087 111.437 77.9087C112.542 77.9087 113.437 77.0133 113.437 75.9087L109.437 75.9087ZM109.437 82.5154L109.437 94.3132L113.437 94.3132L113.437 82.5154L109.437 82.5154ZM109.438 50.8975L109.437 75.9087L113.437 75.9087L113.438 50.8975L109.438 50.8975Z" fill="black"/>
<path d="M52.8086 94.313C52.8086 95.4176 53.704 96.313 54.8086 96.313C55.9132 96.313 56.8086 95.4176 56.8086 94.313L52.8086 94.313ZM56.8086 50.8973C56.8086 49.7927 55.9132 48.8973 54.8086 48.8973C53.704 48.8973 52.8086 49.7927 52.8086 50.8973L56.8086 50.8973ZM52.8086 57.0321C52.8086 58.1367 53.704 59.0321 54.8086 59.0321C55.9132 59.0321 56.8086 58.1367 56.8086 57.0321L52.8086 57.0321ZM56.8086 63.6388C56.8086 62.5343 55.9132 61.6388 54.8086 61.6388C53.704 61.6388 52.8086 62.5343 52.8086 63.6388L56.8086 63.6388ZM56.8086 57.0321L56.8086 50.8973L52.8086 50.8973L52.8086 57.0321L56.8086 57.0321ZM56.8086 94.313L56.8086 63.6388L52.8086 63.6388L52.8086 94.313L56.8086 94.313Z" fill="black"/>
<path d="M68.1328 50.8975C68.1328 49.7929 67.2374 48.8975 66.1328 48.8975C65.0282 48.8975 64.1328 49.7929 64.1328 50.8975L68.1328 50.8975ZM64.1328 94.3132C64.1328 95.4178 65.0282 96.3132 66.1328 96.3132C67.2374 96.3132 68.1328 95.4178 68.1328 94.3132L64.1328 94.3132ZM64.1328 50.8975L64.1328 94.3132L68.1328 94.3132L68.1328 50.8975L64.1328 50.8975Z" fill="black"/>
<path d="M79.4609 50.8975C79.4609 49.7929 78.5655 48.8975 77.4609 48.8975C76.3564 48.8975 75.4609 49.7929 75.4609 50.8975L79.4609 50.8975ZM75.4609 94.3132C75.4609 95.4178 76.3564 96.3132 77.4609 96.3132C78.5655 96.3132 79.4609 95.4178 79.4609 94.3132L75.4609 94.3132ZM75.4609 50.8975L75.4609 94.3132L79.4609 94.3132L79.4609 50.8975L75.4609 50.8975Z" fill="black"/>
<circle cx="118.513" cy="118.38" r="8.96629" stroke="black" stroke-width="4"/>
<circle cx="96.8061" cy="118.38" r="8.96629" stroke="black" stroke-width="4"/>
<circle cx="165.705" cy="118.38" r="8.96629" stroke="black" stroke-width="4"/>
<circle r="3.30337" transform="matrix(1 0 0 -1 165.706 118.38)" fill="black"/>
<circle r="3.30337" transform="matrix(1 0 0 -1 118.514 118.38)" fill="black"/>
<circle r="3.30337" transform="matrix(1 0 0 -1 96.8073 118.38)" fill="black"/>
<path d="M147.3 117.908C147.3 109.568 155.216 102.807 163.817 102.807C172.418 102.807 179.862 108.47 180.334 117.908M147.3 117.908H136.918M147.3 117.908V120.212C147.3 120.764 147.748 121.212 148.3 121.212H156.738M180.334 117.908H185.053C185.574 117.908 185.997 117.486 185.997 116.965V93.0113C185.997 92.9355 185.988 92.86 185.97 92.7864L181.626 75.0758C180.59 70.8544 176.806 67.886 172.459 67.886H169.008M180.334 117.908V120.212C180.334 120.764 179.886 121.212 179.334 121.212H174.671M136.918 117.908V107.055M136.918 117.908H127.48M136.918 107.055H127.48M136.918 107.055V95.7287M136.918 67.886V60.3354C136.918 59.8142 137.341 59.3916 137.862 59.3916H158.289C158.507 59.3916 158.718 59.467 158.887 59.6049L169.008 67.886M136.918 67.886H169.008M136.918 67.886V81.8073M34.0418 117.908H29.3227C28.8015 117.908 28.3789 117.486 28.3789 116.965V107.998C28.3789 107.477 28.8015 107.055 29.3227 107.055H35.9295M87.8396 117.908H51.9744M110.019 117.908H105.3M35.9295 107.055V101.392M35.9295 107.055H127.48M127.48 107.055V102.807M136.918 95.7287H131.727M136.918 95.7287V81.8073M136.918 81.8073H131.727" stroke="black" stroke-width="4"/>
<path d="M170.829 73.5488H160.098C159.545 73.5488 159.098 73.9965 159.098 74.5488V82.3459C159.098 82.7645 159.358 83.1389 159.751 83.2839L177.674 89.9037C178.415 90.1777 179.167 89.523 178.997 88.7508L176.689 78.2597C176.083 75.5085 173.646 73.5488 170.829 73.5488Z" stroke="black" stroke-width="4"/>
<path d="M145.414 90.4253C144.309 90.4253 143.414 91.3207 143.414 92.4253C143.414 93.5299 144.309 94.4253 145.414 94.4253L145.414 90.4253ZM152.021 94.4253C153.125 94.4253 154.021 93.5299 154.021 92.4253C154.021 91.3207 153.125 90.4253 152.021 90.4253L152.021 94.4253ZM145.414 94.4253L152.021 94.4253L152.021 90.4253L145.414 90.4253L145.414 94.4253Z" fill="black"/>
<path d="M145.414 95.1445C144.309 95.1445 143.414 96.04 143.414 97.1445C143.414 98.2491 144.309 99.1445 145.414 99.1445L145.414 95.1445ZM148.246 99.1445C149.35 99.1445 150.246 98.2491 150.246 97.1445C150.246 96.04 149.35 95.1445 148.246 95.1445L148.246 99.1445ZM145.414 99.1445L148.246 99.1445L148.246 95.1445L145.414 95.1445L145.414 99.1445Z" fill="black"/>
<path d="M90.7852 50.8975C90.7852 49.7929 89.8897 48.8975 88.7852 48.8975C87.6806 48.8975 86.7852 49.7929 86.7852 50.8975L90.7852 50.8975ZM86.7852 94.3132C86.7852 95.4178 87.6806 96.3132 88.7852 96.3132C89.8897 96.3132 90.7852 95.4178 90.7852 94.3132L86.7852 94.3132ZM86.7852 50.8975L86.7852 94.3132L90.7852 94.3132L90.7852 50.8975L86.7852 50.8975Z" fill="black"/>
<path d="M102.109 50.8975C102.109 49.7929 101.214 48.8975 100.109 48.8975C99.0048 48.8975 98.1094 49.7929 98.1094 50.8975L102.109 50.8975ZM98.1094 94.3132C98.1094 95.4178 99.0048 96.3132 100.109 96.3132C101.214 96.3132 102.109 95.4178 102.109 94.3132L98.1094 94.3132ZM98.1094 50.8975L98.1094 94.3132L102.109 94.3132L102.109 50.8975L98.1094 50.8975Z" fill="black"/>
<path d="M124.762 50.8975C124.762 49.7929 123.866 48.8975 122.762 48.8975C121.657 48.8975 120.762 49.7929 120.762 50.8975L124.762 50.8975ZM120.762 94.3132C120.762 95.4178 121.657 96.3132 122.762 96.3132C123.866 96.3132 124.762 95.4178 124.762 94.3132L120.762 94.3132ZM120.762 50.8975L120.762 94.3132L124.762 94.3132L124.762 50.8975L120.762 50.8975Z" fill="black"/>
<rect x="23.6602" y="43.3467" width="107.596" height="58.5169" rx="1" stroke="black" stroke-width="4"/>
</svg>
