<svg width="5087" height="1274" viewBox="0 0 5087 1274" fill="none" xmlns="http://www.w3.org/2000/svg">
<g clip-path="url(#clip0)">
<path fill-rule="evenodd" clip-rule="evenodd" d="M3587.7 92.2037C3731.02 92.2037 3848.5 202.817 3859.44 343.329C3981.14 348.374 4082.24 433.223 4111.78 546.924C4128.56 543.693 4145.89 542.001 4163.61 542.001C4310.16 542.001 4429.7 657.662 4435.93 802.682C4475.49 780.314 4521.2 767.547 4569.89 767.547C4697.88 767.547 4805.26 855.767 4834.56 974.717C4975.59 985.119 5086.79 1102.84 5086.79 1246.54C5086.79 1397.07 4964.76 1519.11 4814.22 1519.11C4799.32 1519.11 4784.7 1517.91 4770.46 1515.61L4736.72 1588.7C4198.74 1597.75 3103.2 1618.04 3024.95 1626.74C2946.7 1635.43 1869.28 1605 1340.35 1588.7L1235.05 1423.23C1206.39 1416.54 1179.65 1404.85 1155.8 1389.13C1116.9 1414.76 1070.32 1429.69 1020.25 1429.69C953.789 1429.69 893.471 1403.4 849.124 1360.65C806.696 1395.17 752.572 1415.85 693.615 1415.85C605.459 1415.85 528.107 1369.6 484.507 1300.03C456.235 1405.07 360.324 1482.38 246.357 1482.38C110.161 1482.38 -0.248047 1371.97 -0.248047 1235.77C-0.248047 1099.58 110.161 989.167 246.357 989.167C265.106 989.167 283.365 991.259 300.915 995.223C297.442 978.737 295.615 961.645 295.615 944.126C295.615 838.464 362.068 748.322 455.46 713.215C453.486 700.647 452.461 687.763 452.461 674.64C452.461 538.443 562.87 428.034 699.066 428.034C711.71 428.034 724.131 428.986 736.262 430.821C774.802 344.882 861.106 285.021 961.39 285.021C1002.13 285.021 1040.57 294.902 1074.43 312.398C1107.17 214.604 1199.52 144.131 1308.34 144.131C1425.21 144.131 1523.1 225.437 1548.52 334.573C1575.58 324.367 1604.9 318.783 1635.53 318.783C1768.23 318.783 1876.45 423.595 1881.92 554.95C1885.44 554.588 1889.01 554.403 1892.63 554.403C1942.39 554.403 1983.96 589.47 1993.97 636.24C2011.87 621.513 2034.79 612.671 2059.78 612.671C2117.02 612.671 2163.42 659.072 2163.42 716.31C2163.42 726.6 2161.92 736.54 2159.13 745.923C2229.55 757.651 2289.88 799.219 2326.67 857.193C2342.91 846.626 2362.3 840.487 2383.12 840.487C2440.36 840.487 2486.76 886.888 2486.76 944.126C2486.76 947.626 2486.59 951.085 2486.25 954.495C2494.7 958.601 2502.5 963.821 2509.48 969.964C2524.57 961.378 2542.04 956.475 2560.64 956.475C2597.65 956.475 2630.12 975.867 2648.46 1005.04C2659.44 1001.08 2671.29 998.917 2683.64 998.917C2718.96 998.917 2750.15 1016.58 2768.86 1043.55C2768.82 1042.41 2768.8 1041.27 2768.8 1040.12C2768.8 982.877 2815.2 936.476 2872.44 936.476C2874.92 936.476 2877.37 936.563 2879.8 936.733C2874.18 921.63 2871.12 905.288 2871.12 888.229C2871.12 811.364 2933.43 749.053 3010.29 749.053C3018.07 749.053 3025.7 749.691 3033.13 750.918C3030.18 734.86 3028.64 718.31 3028.64 701.401C3028.64 550.865 3150.68 428.832 3301.21 428.832C3308.51 428.832 3315.75 429.119 3322.91 429.683C3317.83 408.88 3315.13 387.141 3315.13 364.772C3315.13 214.237 3437.16 92.2037 3587.7 92.2037ZM1025.28 936.527C1024.9 936.149 1024.53 935.771 1024.15 935.392C1022.34 935.775 1020.53 936.138 1018.7 936.481C1019.22 936.478 1019.73 936.476 1020.25 936.476C1021.93 936.476 1023.61 936.493 1025.28 936.527Z" fill="black"/>
</g>
<defs>
<clipPath id="clip0">
<rect width="5087" height="1274" fill="white"/>
</clipPath>
</defs>
</svg>
