<svg width="3922" height="810" viewBox="0 0 3922 810" fill="none" xmlns="http://www.w3.org/2000/svg">
<g clip-path="url(#clip0)">
<path d="M3007.8 219.71C3007.8 222.348 3007.75 224.973 3007.63 227.584C3023.75 222.843 3040.8 220.3 3058.45 220.3C3137.94 220.3 3205.38 271.891 3229.11 343.415C3266.43 324.212 3308.76 313.372 3353.63 313.372C3475.9 313.372 3579.37 393.884 3613.91 504.786C3625.64 503.244 3637.61 502.449 3649.76 502.449C3800.3 502.449 3922.33 624.482 3922.33 775.017C3922.33 925.553 3800.3 1047.59 3649.76 1047.59C3527.49 1047.59 3424.02 967.075 3389.48 856.173C3377.75 857.714 3365.78 858.51 3353.63 858.51C3334.07 858.51 3315 856.45 3296.61 852.537C3246.87 905.664 3176.11 938.864 3097.59 938.864C3004.31 938.864 2921.98 892.007 2872.84 820.545C2869.27 820.684 2865.68 820.754 2862.08 820.754C2851.54 820.754 2841.14 820.155 2830.91 818.991C2780.94 876.297 2707.39 912.51 2625.39 912.51C2573.65 912.51 2525.27 898.092 2484.06 873.055C2440.03 903.585 2386.57 921.475 2328.93 921.475C2321.32 921.475 2313.78 921.163 2306.32 920.551C2278.24 1041.19 2170.04 1131.08 2040.85 1131.08C2000.31 1131.08 1961.84 1122.23 1927.27 1106.36C1892.69 1122.23 1854.22 1131.08 1813.69 1131.08C1754.35 1131.08 1699.45 1112.12 1654.7 1079.93C1609.95 1112.12 1555.04 1131.08 1495.71 1131.08C1347.68 1131.08 1227.21 1013.07 1223.24 865.993C1210.79 867.816 1198.07 868.798 1185.14 868.88C1145.79 971.014 1046.71 1043.48 930.703 1043.48C843.714 1043.48 766.243 1002.73 716.338 939.28C655.155 1064.74 526.364 1151.18 377.384 1151.18C169.235 1151.18 0.496094 982.445 0.496094 774.295C0.496094 566.145 169.235 397.407 377.384 397.407C380.636 397.407 383.878 397.448 387.11 397.53C401.095 358.844 429.213 326.921 465.229 307.997C495.301 273.523 539.553 251.739 588.893 251.739C607.161 251.739 624.731 254.725 641.142 260.236C653.456 181.824 721.318 121.848 803.188 121.848C860.917 121.848 911.681 151.669 940.916 196.746C960.566 188.422 982.174 183.817 1004.86 183.817C1087.43 183.817 1155.75 244.823 1167.21 324.22C1172.56 323.907 1177.96 323.748 1183.39 323.748C1331.43 323.748 1451.9 441.757 1455.86 588.833C1468.87 586.928 1482.17 585.941 1495.71 585.941C1555.04 585.941 1609.95 604.899 1654.7 637.088C1699.45 604.899 1754.35 585.941 1813.69 585.941C1854.22 585.941 1892.69 594.789 1927.27 610.66C1961.84 594.789 2000.31 585.941 2040.85 585.941C2048.46 585.941 2056 586.253 2063.46 586.866C2091.54 466.222 2199.74 376.338 2328.93 376.338C2331.1 376.338 2333.26 376.363 2335.42 376.414C2380.92 289.324 2472.1 229.88 2577.16 229.88C2602.16 229.88 2626.37 233.245 2649.37 239.547C2648.65 233.033 2648.29 226.414 2648.29 219.71C2648.29 120.432 2728.77 39.9507 2828.04 39.9507C2927.32 39.9507 3007.8 120.432 3007.8 219.71Z" fill="#A9D0F4"/>
</g>
<defs>
<clipPath id="clip0">
<rect width="3922" height="810" fill="white"/>
</clipPath>
</defs>
</svg>
