<svg width="582" height="825" viewBox="0 0 582 825" fill="none" xmlns="http://www.w3.org/2000/svg">
<path d="M5.29102 657.025C5.29102 655.754 6.32157 654.724 7.59282 654.724H151.211C152.483 654.724 153.513 655.754 153.513 657.025V657.025H5.29102V657.025Z" fill="#878096"/>
<rect x="5.29102" y="656.831" width="1.83144" height="8.93923" fill="#878096"/>
<rect x="17.6406" y="656.831" width="1.83144" height="8.93923" fill="#878096"/>
<rect x="29.8262" y="656.831" width="1.83144" height="8.93923" fill="#878096"/>
<rect x="42.0117" y="656.831" width="1.83144" height="8.93923" fill="#878096"/>
<rect x="54.1973" y="656.831" width="1.83144" height="8.93923" fill="#878096"/>
<rect x="66.3828" y="656.831" width="1.83144" height="8.93923" fill="#878096"/>
<rect x="78.5684" y="656.831" width="1.83144" height="8.93923" fill="#878096"/>
<path d="M311.336 91.6605L319.282 110.222L417.011 110.222L424.957 91.6605L311.336 91.6605Z" fill="#B4B5C5"/>
<path d="M319.281 110.222V196.547L417.011 196.547V110.222L319.281 110.222Z" fill="#FEFEFE"/>
<path d="M368.145 46.2725L309.23 81.4407L427.059 81.4408L368.145 46.2725Z" fill="#FBFCFC"/>
<path d="M303.219 81.4408L306.826 91.6606H311.335L424.956 91.6606H429.464L433.072 81.4408H427.06L309.231 81.4408H303.219Z" fill="#878096"/>
<path d="M359.129 45.3968C359.129 44.8843 359.544 44.4689 360.057 44.4689H376.236C376.748 44.4689 377.164 44.8843 377.164 45.3968V45.3968C377.164 47.4467 375.502 49.1085 373.452 49.1085H362.841C360.791 49.1085 359.129 47.4467 359.129 45.3968V45.3968Z" fill="#878096"/>
<path d="M361.664 43.541C361.664 44.0534 362.08 44.4689 362.592 44.4689H373.702C374.214 44.4689 374.63 44.0534 374.63 43.541V43.541C374.63 41.491 372.968 39.8293 370.918 39.8293H365.376C363.326 39.8293 361.664 41.491 361.664 43.541V43.541Z" fill="#878096"/>
<path d="M365.781 44.4689H370.515V32.4404C370.515 31.1333 369.455 30.0736 368.148 30.0736V30.0736C366.841 30.0736 365.781 31.1333 365.781 32.4404V44.4689Z" fill="#878096"/>
<path d="M367.406 33.3542H368.888V0.83427C368.888 0.425036 368.556 0.0932878 368.147 0.0932878V0.0932878C367.738 0.0932878 367.406 0.425038 367.406 0.834272V33.3542Z" fill="#878096"/>
<rect x="296.785" y="181.606" width="4.82681" height="14.9412" fill="#403348"/>
<rect x="323.346" y="181.606" width="4.82681" height="14.9412" fill="#403348"/>
<rect x="351.945" y="181.606" width="4.82681" height="14.9412" fill="#403348"/>
<rect x="379.525" y="181.606" width="4.82681" height="14.9412" fill="#403348"/>
<rect x="408.125" y="181.606" width="4.82681" height="14.9412" fill="#403348"/>
<rect x="434.684" y="181.606" width="4.82681" height="14.9412" fill="#403348"/>
<rect width="5.28885" height="21.2793" transform="matrix(-1 0 0 1 313.818 174.005)" fill="#878096"/>
<path d="M315.023 173.321C315.023 171.195 313.3 169.471 311.174 169.471V169.471C309.047 169.471 307.324 171.195 307.324 173.321V184.734H315.023V173.321Z" fill="#FFCD4C"/>
<rect x="311.176" y="170.084" width="3.61438" height="9.05433" rx="1.80719" transform="rotate(59.7036 311.176 170.084)" fill="#ED8E20"/>
<rect x="299.408" y="166.105" width="9.12169" height="2.30076" fill="#878096"/>
<path d="M301.377 165.505H305.33V169.005H301.377V165.505Z" fill="#878096"/>
<path d="M297.588 167.255C297.588 166.085 298.044 165.136 298.606 165.136H299.719C300.282 165.136 300.737 166.085 300.737 167.255C300.737 168.425 300.282 169.374 299.719 169.374H298.606C298.044 169.374 297.588 168.425 297.588 167.255Z" fill="#878096"/>
<path d="M299.598 167.255C299.598 166.085 300.054 165.136 300.616 165.136H301.729C302.291 165.136 302.747 166.085 302.747 167.255C302.747 168.425 302.291 169.374 301.729 169.374H300.616C300.054 169.374 299.598 168.425 299.598 167.255Z" fill="#878096"/>
<path d="M303.979 167.255C303.979 166.289 304.355 165.505 304.819 165.505H305.738C306.203 165.505 306.579 166.289 306.579 167.255C306.579 168.221 306.203 169.004 305.738 169.004H304.819C304.355 169.004 303.979 168.221 303.979 167.255Z" fill="#878096"/>
<rect x="302.033" y="168.887" width="3.61438" height="9.05433" rx="1.80719" transform="rotate(-17.3139 302.033 168.887)" fill="#ED8E20"/>
<circle r="3.37559" transform="matrix(-0.845322 -0.534257 -0.534257 0.845322 310.9 166.429)" fill="#E89D75"/>
<path d="M307.907 163.605C309.017 161.852 311.33 161.336 313.088 162.437C314.093 163.065 314.796 164.943 314.796 164.943L315.285 165.289C315.579 165.496 315.438 165.958 315.079 165.966L314.821 165.972L307.327 165.494L307.195 165.486C306.853 165.465 306.718 165.033 306.987 164.821L307.528 164.394C307.528 164.394 307.724 163.894 307.907 163.605Z" fill="#FFCD4C"/>
<ellipse cx="298.546" cy="167.255" rx="0.632338" ry="1.7498" fill="#403348"/>
<ellipse cx="300.734" cy="167.255" rx="0.632338" ry="1.7498" fill="#403348"/>
<path d="M289.879 178.346C289.879 177.896 290.244 177.531 290.694 177.531H445.598C446.048 177.531 446.413 177.896 446.413 178.346V178.346C446.413 180.146 444.954 181.606 443.153 181.606H293.139C291.338 181.606 289.879 180.146 289.879 178.346V178.346Z" fill="#403348"/>
<path d="M311.5 560.469L424.796 560.469L421.752 484.498H314.544L311.5 560.469Z" fill="url(#paint0_linear)"/>
<path d="M317.136 419.806H419.16L416.603 355.977H319.693L317.136 419.806Z" fill="url(#paint1_linear)"/>
<path d="M324.147 244.819L321.92 300.398H414.376L412.149 244.819L324.147 244.819Z" fill="url(#paint2_linear)"/>
<path d="M308.865 208.985L324.147 244.818L412.149 244.818L427.431 208.985H308.865Z" fill="#D1221C"/>
<path d="M438.813 195.284H297.479C295.167 195.284 293.651 197.718 294.62 199.818C297.177 205.36 302.759 208.985 308.863 208.985H427.429C433.533 208.985 439.115 205.36 441.673 199.818C442.641 197.718 441.125 195.284 438.813 195.284Z" fill="#B4B5C5"/>
<path d="M421.753 484.498H314.545L317.137 419.806H419.161L421.753 484.498Z" fill="url(#paint3_linear)"/>
<path d="M416.603 355.977H319.693L321.92 300.398H414.376L416.603 355.977Z" fill="url(#paint4_linear)"/>
<path d="M321.99 513.044C321.99 503.27 329.914 495.345 339.689 495.345V495.345C349.464 495.345 357.388 503.27 357.388 513.044V558.267H321.99V513.044Z" fill="#E42819"/>
<ellipse cx="339.687" cy="515.214" rx="4.49719" ry="6.32629" fill="#2C1B3D"/>
<rect x="287.867" y="527.474" width="3.99759" height="32.5147" fill="#403348"/>
<rect x="315.627" y="527.474" width="3.99759" height="32.5147" fill="#403348"/>
<rect x="343.387" y="527.474" width="3.99759" height="32.5147" fill="#403348"/>
<rect x="371.146" y="527.474" width="3.99759" height="32.5147" fill="#403348"/>
<rect x="398.906" y="527.474" width="3.99759" height="32.5147" fill="#403348"/>
<rect x="426.666" y="527.474" width="3.99759" height="32.5147" fill="#403348"/>
<rect x="454.426" y="527.474" width="3.99759" height="32.5147" fill="#403348"/>
<path d="M280.371 528.265C280.371 525.312 282.764 522.919 285.716 522.919H459.719C462.671 522.919 465.064 525.312 465.064 528.265V528.265C465.064 529.606 463.976 530.694 462.634 530.694H282.801C281.459 530.694 280.371 529.606 280.371 528.265V528.265Z" fill="#6D452E"/>
<rect x="288.623" y="541.333" width="167.802" height="4.26415" fill="#403348"/>
<circle cx="289.423" cy="519.745" r="4.53075" fill="#D4BEB2"/>
<circle cx="345.621" cy="519.745" r="4.53075" fill="#D4BEB2"/>
<circle cx="400.662" cy="519.745" r="4.53075" fill="#403348"/>
<circle cx="400.662" cy="519.745" r="4.53075" fill="#D4BEB2"/>
<circle cx="456.935" cy="519.745" r="4.53075" fill="#D4BEB2"/>
<path d="M287.934 569.384L280.373 628.069H465.066L457.506 569.384H287.934Z" fill="#B4B5C5"/>
<rect opacity="0.5" x="393.174" y="581.899" width="20.3368" height="7.88863" rx="1.77347" fill="#7E8495"/>
<rect opacity="0.5" x="399.055" y="591.984" width="20.3368" height="7.88863" rx="1.77347" fill="#897CA6"/>
<rect opacity="0.5" x="419.391" y="612.4" width="24.745" height="7.88863" rx="1.77347" fill="#897CA6"/>
<rect opacity="0.5" x="301.404" y="589.788" width="24.745" height="7.88863" rx="1.77347" fill="#7E8495"/>
<rect opacity="0.5" x="314.494" y="599.873" width="24.745" height="7.88863" rx="1.77347" fill="#7785AA"/>
<rect opacity="0.5" x="331.473" y="579.681" width="24.745" height="3.94427" rx="1.77347" fill="#9681B8"/>
<rect opacity="0.5" x="323.85" y="616.344" width="24.745" height="3.94427" rx="1.77347" fill="#E1E4E9"/>
<rect opacity="0.5" x="416.441" y="587.241" width="12.3718" height="2.54668" rx="1.27334" fill="#E1E4E9"/>
<path d="M280.373 628.069L261.291 668.392H350.577H394.861H484.147L465.066 628.069H280.373Z" fill="#878096"/>
<path d="M280.731 560.444L287.933 569.385H457.505L464.707 560.444C466.009 558.828 464.859 556.424 462.783 556.424H394.861H350.577H282.655C280.579 556.424 279.429 558.828 280.731 560.444Z" fill="#878096"/>
<path d="M166.656 728.842L198.746 665.77H552.836L581.605 728.842L518.533 766.464V781.956L466.526 815.152L372.471 824.004L283.948 802.98L234.154 766.464L192.106 756.505L177.721 737.694L166.656 728.842Z" fill="#675F79"/>
<path d="M544.143 677.73H415.93L483.7 732.679V785.185L440.962 823.649L508.732 779.08V761.985L567.954 725.963L544.143 677.73Z" fill="#7D758E"/>
<path d="M0.466797 667.005C0.466797 666.323 1.01985 665.77 1.70207 665.77H210.52V670.181C210.52 670.863 209.967 671.416 209.285 671.416H1.70207C1.01985 671.416 0.466797 670.863 0.466797 670.181V667.005Z" fill="#403348"/>
<path d="M0.466797 667.005C0.466797 666.323 1.01985 665.77 1.70207 665.77H58.1722V671.416H1.70207C1.01985 671.416 0.466797 670.863 0.466797 670.181V667.005Z" fill="#878096"/>
<path d="M5.29102 696.387C5.29102 695.704 5.84406 695.151 6.52629 695.151H183.91V697.451C183.91 698.134 183.357 698.687 182.675 698.687H6.52629C5.84407 698.687 5.29102 698.134 5.29102 697.451V696.387Z" fill="#878096"/>
<path d="M60.168 696.387C60.168 695.704 60.721 695.151 61.4032 695.151H183.909V697.451C183.909 698.134 183.356 698.687 182.674 698.687H61.4032C60.721 698.687 60.168 698.134 60.168 697.451V696.387Z" fill="#403348"/>
<rect x="5.29102" y="670.403" width="5.00896" height="53.031" fill="#878096"/>
<rect x="55.668" y="671.416" width="5.00896" height="52.0186" fill="#403348"/>
<rect x="55.668" y="671.416" width="2.50432" height="52.0186" fill="#403348"/>
<rect x="106.051" y="670.403" width="5.00896" height="53.031" fill="#403348"/>
<rect x="156.428" y="670.403" width="5.00896" height="53.031" fill="#403348"/>
<rect x="9.94727" y="628.069" width="1.59153" height="37.9152" fill="#878096"/>
<rect x="62.5254" y="628.069" width="1.59153" height="37.9152" fill="#403348"/>
<circle cx="63.324" cy="626.975" r="2.41972" fill="#D4BEB2"/>
<circle cx="10.74" cy="626.975" r="2.41972" fill="#D4BEB2"/>
<rect x="73.7012" y="653.913" width="7.64403" height="11.8569" fill="url(#paint5_linear)"/>
<rect x="73.4453" y="657.059" width="8.15461" height="0.430841" rx="0.21542" fill="#A81313"/>
<rect x="73.4453" y="662.193" width="8.15461" height="0.430841" rx="0.21542" fill="#A81313"/>
<rect x="83.8828" y="653.913" width="7.64403" height="11.8569" fill="url(#paint6_linear)"/>
<rect x="83.625" y="657.059" width="8.15461" height="0.430841" rx="0.21542" fill="#A81313"/>
<rect x="83.625" y="662.193" width="8.15461" height="0.430841" rx="0.21542" fill="#A81313"/>
<rect x="13.8164" y="653.913" width="7.64403" height="11.8569" fill="url(#paint7_linear)"/>
<rect x="13.5605" y="657.06" width="8.15461" height="0.430841" rx="0.21542" fill="#A81313"/>
<rect x="13.5605" y="662.193" width="8.15461" height="0.430841" rx="0.21542" fill="#A81313"/>
<path fill-rule="evenodd" clip-rule="evenodd" d="M182.049 564.317C182.049 551.623 192.339 541.333 205.033 541.333C217.727 541.333 228.018 551.623 228.018 564.317V566.445H224.312V564.317C224.312 553.67 215.68 545.039 205.033 545.039C194.386 545.039 185.755 553.67 185.755 564.317V566.445H182.049V564.317Z" fill="#B4B5C5"/>
<path d="M223.094 628.069H228.952V664.868H223.094V628.069Z" fill="#878096"/>
<path d="M223.094 571.385H228.952V628.584H223.094V571.385Z" fill="#B4B5C5"/>
<path d="M220.811 626.975H231.24V628.958C231.24 629.64 230.686 630.193 230.004 630.193H222.046C221.364 630.193 220.811 629.64 220.811 628.958V626.975Z" fill="#675F79"/>
<path d="M220.309 569.23H231.738V570.287C231.738 571.651 230.632 572.758 229.267 572.758H222.779C221.415 572.758 220.309 571.651 220.309 570.287V569.23Z" fill="#675F79"/>
<path d="M220.625 566.698C220.625 566.063 221.139 565.549 221.773 565.549H230.274C230.908 565.549 231.422 566.063 231.422 566.698V566.698C231.422 567.332 230.908 567.846 230.274 567.846H221.773C221.139 567.846 220.625 567.332 220.625 566.698V566.698Z" fill="#675F79"/>
<path d="M179.857 566.698C179.857 566.063 180.372 565.549 181.006 565.549H186.793C187.427 565.549 187.942 566.063 187.942 566.698V566.698C187.942 567.332 187.427 567.846 186.793 567.846H181.006C180.372 567.846 179.857 567.332 179.857 566.698V566.698Z" fill="#675F79"/>
<path d="M217.389 568.236C217.389 567.602 217.903 567.088 218.537 567.088H233.508C234.143 567.088 234.657 567.602 234.657 568.236V568.236C234.657 568.871 234.143 569.385 233.508 569.385H218.537C217.903 569.385 217.389 568.871 217.389 568.236V568.236Z" fill="#878096"/>
<path d="M177.438 568.236C177.438 567.602 177.952 567.088 178.586 567.088H189.218C189.853 567.088 190.367 567.602 190.367 568.236V568.236C190.367 568.871 189.853 569.385 189.218 569.385H178.586C177.952 569.385 177.438 568.871 177.438 568.236V568.236Z" fill="#878096"/>
<path d="M174.887 568.787C174.887 568.75 174.916 568.72 174.953 568.72H192.852C192.888 568.72 192.918 568.75 192.918 568.787V568.787C192.918 570.582 191.463 572.037 189.668 572.037H178.137C176.342 572.037 174.887 570.582 174.887 568.787V568.787Z" fill="#675F79"/>
<path d="M174.887 592.739C174.887 592.775 174.916 592.805 174.953 592.805H192.852C192.888 592.805 192.918 592.775 192.918 592.739V592.739C192.918 590.944 191.463 589.489 189.668 589.489H178.137C176.342 589.489 174.887 590.944 174.887 592.739V592.739Z" fill="#675F79"/>
<path d="M220.811 665.984H231.24V664.001C231.24 663.319 230.686 662.766 230.004 662.766H222.046C221.364 662.766 220.811 663.319 220.811 664.001V665.984Z" fill="#675F79"/>
<path d="M206.021 648.738C206.021 646.231 208.054 644.198 210.561 644.198H535.36C537.868 644.198 539.9 646.231 539.9 648.738V648.738H206.021V648.738Z" fill="#403348"/>
<rect x="206.021" y="648.354" width="4.12542" height="17.6305" fill="#403348"/>
<rect x="233.842" y="648.354" width="4.12542" height="17.6305" fill="#403348"/>
<rect x="261.289" y="648.354" width="4.12542" height="17.6305" fill="#403348"/>
<rect x="288.738" y="648.354" width="4.12542" height="17.6305" fill="#403348"/>
<rect x="316.186" y="648.354" width="4.12542" height="17.6305" fill="#403348"/>
<rect x="343.637" y="648.354" width="4.12542" height="17.6305" fill="#403348"/>
<rect x="371.084" y="648.354" width="4.12542" height="17.6305" fill="#403348"/>
<rect x="398.533" y="648.354" width="4.12542" height="17.6305" fill="#403348"/>
<rect x="425.98" y="648.354" width="4.12542" height="17.6305" fill="#403348"/>
<rect x="453.43" y="648.354" width="4.12542" height="17.6305" fill="#403348"/>
<rect x="480.877" y="648.354" width="4.12542" height="17.6305" fill="#403348"/>
<rect x="508.328" y="648.354" width="4.12542" height="17.6305" fill="#403348"/>
<rect x="535.775" y="648.354" width="4.12542" height="17.6305" fill="#403348"/>
<path d="M383.914 456.201C383.914 453.032 386.483 450.463 389.652 450.463V450.463C392.821 450.463 395.39 453.032 395.39 456.201V468.062H383.914V456.201Z" fill="#2C1B3D"/>
<rect x="382.344" y="468.06" width="14.616" height="3.67431" fill="#B82722"/>
<path d="M380.525 325.343C380.525 322.174 383.094 319.605 386.264 319.605V319.605C389.433 319.605 392.002 322.174 392.002 325.343V337.205H380.525V325.343Z" fill="#2C1B3D"/>
<rect x="378.955" y="337.203" width="14.616" height="3.67431" fill="#B82722"/>
<path d="M339.158 392.642C339.158 389.473 341.727 386.904 344.896 386.904V386.904C348.066 386.904 350.635 389.473 350.635 392.642V404.504H339.158V392.642Z" fill="#2C1B3D"/>
<rect x="337.588" y="404.502" width="14.616" height="3.67431" fill="#C0C0C0"/>
<path d="M342.887 270.938C342.887 267.769 345.456 265.2 348.625 265.2V265.2C351.794 265.2 354.363 267.769 354.363 270.938V282.8H342.887V270.938Z" fill="#2C1B3D"/>
<rect x="341.316" y="282.797" width="14.616" height="3.67431" fill="#C0C0C0"/>
<rect x="126.637" y="644.705" width="5.28885" height="21.2793" fill="#878096"/>
<path d="M125.43 644.022C125.43 641.895 127.153 640.172 129.28 640.172V640.172C131.406 640.172 133.129 641.895 133.129 644.022V655.434H125.43V644.022Z" fill="#FFCD4C"/>
<rect x="139.826" y="639.059" width="4.80101" height="9.48137" transform="rotate(37.5186 139.826 639.059)" fill="#F8DB75"/>
<path d="M128.404 643.059C127.584 643.533 127.303 644.581 127.777 645.401L129.758 648.833L129.754 648.836L131.468 651.805L131.473 651.803L131.474 651.805L134.444 650.091L134.442 650.088L137.872 648.108C138.692 647.635 138.973 646.586 138.499 645.766C138.026 644.946 136.977 644.665 136.157 645.138L132.728 647.119L130.746 643.687C130.273 642.867 129.224 642.586 128.404 643.059Z" fill="#ED8E20"/>
<circle cx="130.012" cy="637.583" r="3.37559" fill="#E89D75"/>
<path d="M134.053 636.796C134.051 634.722 132.371 633.05 130.297 633.04C129.112 633.035 127.514 634.247 127.514 634.247L126.916 634.278C126.557 634.296 126.429 634.762 126.728 634.961L126.943 635.103L133.533 638.703L133.649 638.766C133.949 638.931 134.294 638.638 134.181 638.316L133.951 637.666C133.951 637.666 134.053 637.138 134.053 636.796Z" fill="#FFCD4C"/>
<rect width="5.28885" height="21.2793" transform="matrix(-1 0 0 1 158.539 644.705)" fill="#878096"/>
<path d="M159.744 644.022C159.744 641.896 158.02 640.172 155.894 640.172V640.172C153.768 640.172 152.044 641.896 152.044 644.022V655.434H159.744V644.022Z" fill="#FFCD4C"/>
<rect x="154.408" y="642.545" width="3.61438" height="9.05433" rx="1.80719" transform="rotate(-5.10628 154.408 642.545)" fill="#ED8E20"/>
<rect x="155.484" y="647.446" width="3.61438" height="9.05433" rx="1.80719" transform="rotate(12.5621 155.484 647.446)" fill="#ED8E20"/>
<circle r="3.37559" transform="matrix(-0.845322 -0.534257 -0.534257 0.845322 155.622 637.129)" fill="#E89D75"/>
<path d="M152.628 634.306C153.737 632.553 156.051 632.037 157.809 633.137C158.813 633.766 159.517 635.644 159.517 635.644L160.006 635.989C160.3 636.197 160.159 636.659 159.799 636.667L159.542 636.673L152.048 636.195L151.916 636.186C151.574 636.165 151.439 635.734 151.708 635.521L152.249 635.094C152.249 635.094 152.445 634.594 152.628 634.306Z" fill="#FFCD4C"/>
<path d="M58.1719 657.026C58.1719 655.755 59.2024 654.724 60.4737 654.724H204.092C205.364 654.724 206.394 655.755 206.394 657.026V657.026H58.1719V657.026Z" fill="#403348"/>
<rect x="58.1719" y="656.831" width="1.83144" height="8.93923" fill="#403348"/>
<rect x="70.5215" y="656.831" width="1.83144" height="8.93923" fill="#403348"/>
<rect x="82.707" y="656.831" width="1.83144" height="8.93923" fill="#403348"/>
<rect x="94.8926" y="656.831" width="1.83144" height="8.93923" fill="#403348"/>
<rect x="107.078" y="656.831" width="1.83144" height="8.93923" fill="#403348"/>
<rect x="119.264" y="656.831" width="1.83144" height="8.93923" fill="#403348"/>
<rect x="131.449" y="656.831" width="1.83144" height="8.93923" fill="#403348"/>
<rect x="143.635" y="656.831" width="1.83144" height="8.93923" fill="#403348"/>
<rect x="155.822" y="656.831" width="1.83144" height="8.93923" fill="#403348"/>
<rect x="168.006" y="656.831" width="1.83144" height="8.93923" fill="#403348"/>
<rect x="180.193" y="656.831" width="1.83144" height="8.93923" fill="#403348"/>
<rect x="192.377" y="656.831" width="1.83144" height="8.93923" fill="#403348"/>
<rect x="204.564" y="656.831" width="1.83144" height="8.93923" fill="#403348"/>
<defs>
<linearGradient id="paint0_linear" x1="306.059" y1="379.535" x2="428.928" y2="379.535" gradientUnits="userSpaceOnUse">
<stop stop-color="#E2E7E8"/>
<stop offset="0.671875" stop-color="white"/>
<stop offset="1" stop-color="#D5DBDC"/>
</linearGradient>
<linearGradient id="paint1_linear" x1="306.059" y1="379.535" x2="428.928" y2="379.535" gradientUnits="userSpaceOnUse">
<stop stop-color="#E2E7E8"/>
<stop offset="0.671875" stop-color="white"/>
<stop offset="1" stop-color="#D5DBDC"/>
</linearGradient>
<linearGradient id="paint2_linear" x1="306.059" y1="379.535" x2="428.928" y2="379.535" gradientUnits="userSpaceOnUse">
<stop stop-color="#E2E7E8"/>
<stop offset="0.671875" stop-color="white"/>
<stop offset="1" stop-color="#D5DBDC"/>
</linearGradient>
<linearGradient id="paint3_linear" x1="308.487" y1="392.448" x2="425.791" y2="392.448" gradientUnits="userSpaceOnUse">
<stop stop-color="#C31E1E"/>
<stop offset="0.682292" stop-color="#FF2F13"/>
<stop offset="1" stop-color="#C31E1E"/>
</linearGradient>
<linearGradient id="paint4_linear" x1="308.487" y1="392.448" x2="425.791" y2="392.448" gradientUnits="userSpaceOnUse">
<stop stop-color="#C31E1E"/>
<stop offset="0.682292" stop-color="#FF2F13"/>
<stop offset="1" stop-color="#C31E1E"/>
</linearGradient>
<linearGradient id="paint5_linear" x1="81.3452" y1="659.6" x2="73.7012" y2="659.6" gradientUnits="userSpaceOnUse">
<stop stop-color="#EA0808"/>
<stop offset="1" stop-color="#B60E0E"/>
</linearGradient>
<linearGradient id="paint6_linear" x1="91.5268" y1="659.6" x2="83.8828" y2="659.6" gradientUnits="userSpaceOnUse">
<stop stop-color="#EA0808"/>
<stop offset="1" stop-color="#B60E0E"/>
</linearGradient>
<linearGradient id="paint7_linear" x1="21.4604" y1="659.6" x2="13.8164" y2="659.6" gradientUnits="userSpaceOnUse">
<stop stop-color="#EA0808"/>
<stop offset="1" stop-color="#B60E0E"/>
</linearGradient>
</defs>
</svg>
