<svg width="7" height="425" viewBox="0 0 7 425" fill="none" xmlns="http://www.w3.org/2000/svg">
<rect x="1.43058" y="411.857" width="4.17043" height="7.26129" rx="2.08521" stroke="#ED8E20" stroke-width="2.47054"/>
<rect x="2.81075" y="417.1" width="1.41057" height="6.509" rx="0.705284" stroke="#FFB340" stroke-width="1.41057"/>
<rect x="1.43058" y="401.857" width="4.17043" height="7.26129" rx="2.08521" stroke="#ED8E20" stroke-width="2.47054"/>
<rect x="2.81075" y="407.1" width="1.41057" height="6.509" rx="0.705284" stroke="#FFB340" stroke-width="1.41057"/>
<rect x="1.43058" y="391.857" width="4.17043" height="7.26129" rx="2.08521" stroke="#ED8E20" stroke-width="2.47054"/>
<rect x="2.81075" y="397.1" width="1.41057" height="6.509" rx="0.705284" stroke="#FFB340" stroke-width="1.41057"/>
<rect x="1.43058" y="381.857" width="4.17043" height="7.26129" rx="2.08521" stroke="#ED8E20" stroke-width="2.47054"/>
<rect x="2.81075" y="387.1" width="1.41057" height="6.509" rx="0.705284" stroke="#FFB340" stroke-width="1.41057"/>
<rect x="1.43058" y="371.857" width="4.17043" height="7.26129" rx="2.08521" stroke="#ED8E20" stroke-width="2.47054"/>
<rect x="2.81075" y="377.1" width="1.41057" height="6.509" rx="0.705284" stroke="#FFB340" stroke-width="1.41057"/>
<rect x="1.43058" y="361.857" width="4.17043" height="7.26129" rx="2.08521" stroke="#ED8E20" stroke-width="2.47054"/>
<rect x="2.81075" y="367.1" width="1.41057" height="6.509" rx="0.705284" stroke="#FFB340" stroke-width="1.41057"/>
<rect x="1.43058" y="351.857" width="4.17043" height="7.26129" rx="2.08521" stroke="#ED8E20" stroke-width="2.47054"/>
<rect x="2.81075" y="357.1" width="1.41057" height="6.509" rx="0.705284" stroke="#FFB340" stroke-width="1.41057"/>
<rect x="1.43058" y="341.857" width="4.17043" height="7.26129" rx="2.08521" stroke="#ED8E20" stroke-width="2.47054"/>
<rect x="2.81075" y="347.1" width="1.41057" height="6.509" rx="0.705284" stroke="#FFB340" stroke-width="1.41057"/>
<rect x="1.43058" y="331.857" width="4.17043" height="7.26129" rx="2.08521" stroke="#ED8E20" stroke-width="2.47054"/>
<rect x="2.81075" y="337.1" width="1.41057" height="6.509" rx="0.705284" stroke="#FFB340" stroke-width="1.41057"/>
<rect x="1.43058" y="321.857" width="4.17043" height="7.26129" rx="2.08521" stroke="#ED8E20" stroke-width="2.47054"/>
<rect x="2.81075" y="327.1" width="1.41057" height="6.509" rx="0.705284" stroke="#FFB340" stroke-width="1.41057"/>
<rect x="1.43058" y="311.857" width="4.17043" height="7.26129" rx="2.08521" stroke="#ED8E20" stroke-width="2.47054"/>
<rect x="2.81075" y="317.1" width="1.41057" height="6.509" rx="0.705284" stroke="#FFB340" stroke-width="1.41057"/>
<rect x="1.43058" y="301.857" width="4.17043" height="7.26129" rx="2.08521" stroke="#ED8E20" stroke-width="2.47054"/>
<rect x="2.81075" y="307.1" width="1.41057" height="6.509" rx="0.705284" stroke="#FFB340" stroke-width="1.41057"/>
<rect x="1.43058" y="291.857" width="4.17043" height="7.26129" rx="2.08521" stroke="#ED8E20" stroke-width="2.47054"/>
<rect x="2.81075" y="297.1" width="1.41057" height="6.509" rx="0.705284" stroke="#FFB340" stroke-width="1.41057"/>
<rect x="1.43058" y="281.857" width="4.17043" height="7.26129" rx="2.08521" stroke="#ED8E20" stroke-width="2.47054"/>
<rect x="2.81075" y="287.1" width="1.41057" height="6.509" rx="0.705284" stroke="#FFB340" stroke-width="1.41057"/>
<rect x="1.43058" y="271.857" width="4.17043" height="7.26129" rx="2.08521" stroke="#ED8E20" stroke-width="2.47054"/>
<rect x="2.81075" y="277.1" width="1.41057" height="6.509" rx="0.705284" stroke="#FFB340" stroke-width="1.41057"/>
<rect x="1.43058" y="261.857" width="4.17043" height="7.26129" rx="2.08521" stroke="#ED8E20" stroke-width="2.47054"/>
<rect x="2.81075" y="267.1" width="1.41057" height="6.509" rx="0.705284" stroke="#FFB340" stroke-width="1.41057"/>
<rect x="1.43058" y="251.857" width="4.17043" height="7.26129" rx="2.08521" stroke="#ED8E20" stroke-width="2.47054"/>
<rect x="2.81075" y="257.1" width="1.41057" height="6.509" rx="0.705284" stroke="#FFB340" stroke-width="1.41057"/>
<rect x="1.43058" y="241.857" width="4.17043" height="7.26129" rx="2.08521" stroke="#ED8E20" stroke-width="2.47054"/>
<rect x="2.81075" y="247.1" width="1.41057" height="6.509" rx="0.705284" stroke="#FFB340" stroke-width="1.41057"/>
<rect x="1.43058" y="231.857" width="4.17043" height="7.26129" rx="2.08521" stroke="#ED8E20" stroke-width="2.47054"/>
<rect x="2.81075" y="237.1" width="1.41057" height="6.509" rx="0.705284" stroke="#FFB340" stroke-width="1.41057"/>
<rect x="1.43058" y="221.857" width="4.17043" height="7.26129" rx="2.08521" stroke="#ED8E20" stroke-width="2.47054"/>
<rect x="2.81075" y="227.1" width="1.41057" height="6.509" rx="0.705284" stroke="#FFB340" stroke-width="1.41057"/>
<rect x="1.43058" y="211.857" width="4.17043" height="7.26129" rx="2.08521" stroke="#ED8E20" stroke-width="2.47054"/>
<rect x="2.81075" y="217.1" width="1.41057" height="6.509" rx="0.705284" stroke="#FFB340" stroke-width="1.41057"/>
<rect x="1.43058" y="201.612" width="4.17043" height="7.26129" rx="2.08521" stroke="#ED8E20" stroke-width="2.47054"/>
<rect x="2.81075" y="206.855" width="1.41057" height="6.509" rx="0.705284" stroke="#FFB340" stroke-width="1.41057"/>
<rect x="1.43058" y="191.612" width="4.17043" height="7.26129" rx="2.08521" stroke="#ED8E20" stroke-width="2.47054"/>
<rect x="2.81075" y="196.855" width="1.41057" height="6.509" rx="0.705284" stroke="#FFB340" stroke-width="1.41057"/>
<rect x="1.43058" y="181.612" width="4.17043" height="7.26129" rx="2.08521" stroke="#ED8E20" stroke-width="2.47054"/>
<rect x="2.81075" y="186.855" width="1.41057" height="6.509" rx="0.705284" stroke="#FFB340" stroke-width="1.41057"/>
<rect x="1.43058" y="171.612" width="4.17043" height="7.26129" rx="2.08521" stroke="#ED8E20" stroke-width="2.47054"/>
<rect x="2.81075" y="176.855" width="1.41057" height="6.509" rx="0.705284" stroke="#FFB340" stroke-width="1.41057"/>
<rect x="1.43058" y="161.612" width="4.17043" height="7.26129" rx="2.08521" stroke="#ED8E20" stroke-width="2.47054"/>
<rect x="2.81075" y="166.855" width="1.41057" height="6.509" rx="0.705284" stroke="#FFB340" stroke-width="1.41057"/>
<rect x="1.43058" y="151.612" width="4.17043" height="7.26129" rx="2.08521" stroke="#ED8E20" stroke-width="2.47054"/>
<rect x="2.81075" y="156.855" width="1.41057" height="6.509" rx="0.705284" stroke="#FFB340" stroke-width="1.41057"/>
<rect x="1.43058" y="141.612" width="4.17043" height="7.26129" rx="2.08521" stroke="#ED8E20" stroke-width="2.47054"/>
<rect x="2.81075" y="146.855" width="1.41057" height="6.509" rx="0.705284" stroke="#FFB340" stroke-width="1.41057"/>
<rect x="1.43058" y="131.612" width="4.17043" height="7.26129" rx="2.08521" stroke="#ED8E20" stroke-width="2.47054"/>
<rect x="2.81075" y="136.855" width="1.41057" height="6.509" rx="0.705284" stroke="#FFB340" stroke-width="1.41057"/>
<rect x="1.43058" y="121.612" width="4.17043" height="7.26129" rx="2.08521" stroke="#ED8E20" stroke-width="2.47054"/>
<rect x="2.81075" y="126.855" width="1.41057" height="6.509" rx="0.705284" stroke="#FFB340" stroke-width="1.41057"/>
<rect x="1.43058" y="111.612" width="4.17043" height="7.26129" rx="2.08521" stroke="#ED8E20" stroke-width="2.47054"/>
<rect x="2.81075" y="116.855" width="1.41057" height="6.509" rx="0.705284" stroke="#FFB340" stroke-width="1.41057"/>
<rect x="1.43058" y="101.612" width="4.17043" height="7.26129" rx="2.08521" stroke="#ED8E20" stroke-width="2.47054"/>
<rect x="2.81075" y="106.855" width="1.41057" height="6.509" rx="0.705284" stroke="#FFB340" stroke-width="1.41057"/>
<rect x="1.43058" y="91.6125" width="4.17043" height="7.26129" rx="2.08521" stroke="#ED8E20" stroke-width="2.47054"/>
<rect x="2.81075" y="96.8546" width="1.41057" height="6.509" rx="0.705284" stroke="#FFB340" stroke-width="1.41057"/>
<rect x="1.43058" y="81.6125" width="4.17043" height="7.26129" rx="2.08521" stroke="#ED8E20" stroke-width="2.47054"/>
<rect x="2.81075" y="86.8546" width="1.41057" height="6.509" rx="0.705284" stroke="#FFB340" stroke-width="1.41057"/>
<rect x="1.43058" y="71.6125" width="4.17043" height="7.26129" rx="2.08521" stroke="#ED8E20" stroke-width="2.47054"/>
<rect x="2.81075" y="76.8546" width="1.41057" height="6.509" rx="0.705284" stroke="#FFB340" stroke-width="1.41057"/>
<rect x="1.43058" y="61.6125" width="4.17043" height="7.26129" rx="2.08521" stroke="#ED8E20" stroke-width="2.47054"/>
<rect x="2.81075" y="66.8546" width="1.41057" height="6.509" rx="0.705284" stroke="#FFB340" stroke-width="1.41057"/>
<rect x="1.43058" y="51.6125" width="4.17043" height="7.26129" rx="2.08521" stroke="#ED8E20" stroke-width="2.47054"/>
<rect x="2.81075" y="56.8546" width="1.41057" height="6.509" rx="0.705284" stroke="#FFB340" stroke-width="1.41057"/>
<rect x="1.43058" y="41.6125" width="4.17043" height="7.26129" rx="2.08521" stroke="#ED8E20" stroke-width="2.47054"/>
<rect x="2.81075" y="46.8546" width="1.41057" height="6.509" rx="0.705284" stroke="#FFB340" stroke-width="1.41057"/>
<rect x="1.43058" y="31.6125" width="4.17043" height="7.26129" rx="2.08521" stroke="#ED8E20" stroke-width="2.47054"/>
<rect x="2.81075" y="36.8546" width="1.41057" height="6.509" rx="0.705284" stroke="#FFB340" stroke-width="1.41057"/>
<rect x="1.43058" y="21.6125" width="4.17043" height="7.26129" rx="2.08521" stroke="#ED8E20" stroke-width="2.47054"/>
<rect x="2.81075" y="26.8546" width="1.41057" height="6.509" rx="0.705284" stroke="#FFB340" stroke-width="1.41057"/>
<rect x="1.43058" y="11.6125" width="4.17043" height="7.26129" rx="2.08521" stroke="#ED8E20" stroke-width="2.47054"/>
<rect x="2.81075" y="16.8546" width="1.41057" height="6.509" rx="0.705284" stroke="#FFB340" stroke-width="1.41057"/>
<rect x="1.43058" y="1.61247" width="4.17043" height="7.26129" rx="2.08521" stroke="#ED8E20" stroke-width="2.47054"/>
<rect x="2.81075" y="6.85458" width="1.41057" height="6.509" rx="0.705284" stroke="#FFB340" stroke-width="1.41057"/>
</svg>
