<svg width="26" height="23" viewBox="0 0 26 23" fill="none" xmlns="http://www.w3.org/2000/svg">
<rect x="9.97852" y="0.0563965" width="5.63468" height="3.81707" rx="1.23527" fill="#A94B16"/>
<path d="M1.30276 8.81965L9.92509 2.20252C10.5287 1.73927 11.406 1.95366 11.728 2.64309C11.9665 3.1539 11.8139 3.76199 11.3625 4.09966L4.27946 9.39779C3.58204 9.91945 3.27257 10.8132 3.49808 11.6545L5.74111 20.022C5.82472 20.3339 5.38481 20.4972 5.24461 20.2063L0.791719 10.968C0.431778 10.2212 0.645122 9.32435 1.30276 8.81965Z" fill="#FFB340"/>
<path d="M24.291 8.81965L15.6687 2.20252C15.065 1.73927 14.1877 1.95366 13.8658 2.64309C13.6272 3.1539 13.7798 3.76199 14.2312 4.09966L21.3143 9.39779C22.0117 9.91945 22.3212 10.8132 22.0957 11.6545L19.8526 20.022C19.769 20.3339 20.2089 20.4972 20.3491 20.2063L24.802 10.968C25.162 10.2212 24.9486 9.32435 24.291 8.81965Z" fill="#FFB340"/>
</svg>
