<svg width="29" height="26" viewBox="0 0 29 26" fill="none" xmlns="http://www.w3.org/2000/svg">
<path d="M8.69014 5.97291L9.90385 7.95117C10.8749 9.53397 12.5986 10.4987 14.4555 10.4987C16.3125 10.4987 18.0361 9.53397 19.0072 7.95117L20.2209 5.97291C20.78 5.06157 20.872 3.93851 20.4685 2.94836C19.9531 1.68342 18.7232 0.856445 17.3573 0.856445H11.5537C10.1878 0.856445 8.95789 1.68342 8.4425 2.94836C8.03906 3.93851 8.13102 5.06157 8.69014 5.97291Z" fill="#A9728F"/>
<path d="M24.6439 12.8643L22.3868 12.3236C20.5809 11.8911 18.68 12.4277 17.3669 13.7408C16.0539 15.0539 15.5172 16.9548 15.9498 18.7607L16.4904 21.0177C16.7394 22.0575 17.4685 22.9167 18.454 23.3315C19.7128 23.8615 21.1673 23.5766 22.1331 22.6108L26.2369 18.507C27.2027 17.5412 27.4877 16.0867 26.9577 14.8278C26.5428 13.8424 25.6836 13.1133 24.6439 12.8643Z" fill="#A9728F"/>
<path d="M4.26629 12.8643L6.52336 12.3236C8.32923 11.8911 10.2302 12.4277 11.5432 13.7408C12.8563 15.0539 13.3929 16.9548 12.9604 18.7607L12.4198 21.0177C12.1707 22.0575 11.4416 22.9167 10.4562 23.3315C9.19731 23.8615 7.74286 23.5766 6.77702 22.6108L2.67327 18.507C1.70743 17.5412 1.42249 16.0867 1.9525 14.8278C2.36737 13.8424 3.22652 13.1133 4.26629 12.8643Z" fill="#A9728F"/>
<circle cx="14.4543" cy="13.0605" r="5.41912" fill="#955F7B"/>
</svg>
