<svg width="20" height="12" viewBox="0 0 20 12" fill="none" xmlns="http://www.w3.org/2000/svg">
<path fill-rule="evenodd" clip-rule="evenodd" d="M0.324359 3.11168H1.19686C2.72437 3.11168 3.96267 4.34997 3.96267 5.87748C3.96267 7.40499 2.72437 8.64329 1.19686 8.64329H0.324219C1.15776 9.7352 2.47298 10.4397 3.95275 10.4397H15.0931C17.6127 10.4397 19.6553 8.39718 19.6553 5.87757C19.6553 3.35797 17.6127 1.31543 15.0931 1.31543H3.95274C2.47306 1.31543 1.15791 2.01987 0.324359 3.11168Z" fill="#D97C1B"/>
<path fill-rule="evenodd" clip-rule="evenodd" d="M4.67578 1.3156H5.62495C8.14459 1.3156 10.1872 3.35817 10.1872 5.87781C10.1872 8.39745 8.1446 10.44 5.62496 10.44H4.67591C5.38993 10.8147 6.20272 11.0267 7.06502 11.0267H10.643C13.4866 11.0267 15.7919 8.72143 15.7919 5.87778C15.7919 3.03412 13.4866 0.728882 10.643 0.728882H7.06502C6.20267 0.728882 5.38983 0.94088 4.67578 1.3156Z" fill="#FFB340"/>
</svg>
